<svg width="18" height="19" viewBox="0 0 18 19" fill="none" xmlns="http://www.w3.org/2000/svg">
<path d="M8.61133 0C10.4977 0 12.3068 0.749189 13.6406 2.08301C14.9745 3.41686 15.7236 5.22595 15.7236 7.1123C15.7236 10.1783 16.3808 12.6161 16.916 13.75H16.8936L17.0693 14.0518C17.1678 14.2205 17.2198 14.4121 17.2207 14.6074C17.2215 14.8029 17.1713 14.9954 17.0742 15.165C16.9771 15.3347 16.8369 15.476 16.668 15.5742C16.5412 15.6479 16.4012 15.6954 16.2568 15.7148L16.1113 15.7246H11.9551L11.9277 15.8926C11.7988 16.6796 11.3939 17.3948 10.7861 17.9111C10.1783 18.4274 9.40689 18.7109 8.60938 18.7109C7.8119 18.7109 7.0404 18.4274 6.43262 17.9111C5.82488 17.3948 5.41997 16.6795 5.29102 15.8926L5.26367 15.7246H1.11133C0.915879 15.7244 0.723818 15.6731 0.554688 15.5752C0.385458 15.4771 0.244822 15.3357 0.147461 15.166C0.0501651 14.9964 -0.000686795 14.8039 0 14.6084C0.000759924 14.4129 0.0528624 14.2206 0.151367 14.0518C0.705186 13.0987 1.49902 10.4855 1.49902 7.1123C1.49902 5.22598 2.24821 3.41686 3.58203 2.08301C4.91586 0.749181 6.72501 2.86013e-05 8.61133 0ZM6.0459 15.9707C6.18287 16.5482 6.51102 17.0625 6.97656 17.4307C7.44209 17.7988 8.01783 17.9998 8.61133 18C9.20486 17.9998 9.78152 17.7988 10.2471 17.4307C10.7124 17.0625 11.0398 16.548 11.1768 15.9707L11.2354 15.7246H5.9873L6.0459 15.9707ZM8.61133 0.724609C6.9173 0.724638 5.29259 1.39784 4.09473 2.5957C2.89687 3.79359 2.22363 5.41826 2.22363 7.1123C2.22363 10.4376 1.465 13.2404 0.779297 14.418C0.745325 14.4769 0.726562 14.5443 0.726562 14.6123C0.726562 14.6781 0.744491 14.7423 0.776367 14.7998L0.77832 14.8027C0.778818 14.8036 0.778793 14.8048 0.779297 14.8057C0.811978 14.8645 0.858942 14.913 0.916992 14.9473C0.975813 14.9819 1.04312 14.9995 1.11133 14.999H16.1123C16.1806 14.9995 16.2478 14.9819 16.3066 14.9473C16.3647 14.9131 16.4116 14.8636 16.4443 14.8047L16.4453 14.8057V14.8027L16.4473 14.7998C16.4792 14.7423 16.4971 14.6781 16.4971 14.6123C16.4971 14.5445 16.4792 14.4777 16.4453 14.4189L16.4443 14.418C15.7584 13.2352 14.999 10.4361 14.999 7.1123C14.999 5.41823 14.3258 3.79359 13.1279 2.5957C11.93 1.39785 10.3054 0.724609 8.61133 0.724609Z" fill="#3A3A3A"/>
<path d="M8.61133 0C10.4977 0 12.3068 0.749189 13.6406 2.08301C14.9745 3.41686 15.7236 5.22595 15.7236 7.1123C15.7236 10.1783 16.3808 12.6161 16.916 13.75H16.8936L17.0693 14.0518C17.1678 14.2205 17.2198 14.4121 17.2207 14.6074C17.2215 14.8029 17.1713 14.9954 17.0742 15.165C16.9771 15.3347 16.8369 15.476 16.668 15.5742C16.5412 15.6479 16.4012 15.6954 16.2568 15.7148L16.1113 15.7246H11.9551L11.9277 15.8926C11.7988 16.6796 11.3939 17.3948 10.7861 17.9111C10.1783 18.4274 9.40689 18.7109 8.60938 18.7109C7.8119 18.7109 7.0404 18.4274 6.43262 17.9111C5.82488 17.3948 5.41997 16.6795 5.29102 15.8926L5.26367 15.7246H1.11133C0.915879 15.7244 0.723818 15.6731 0.554688 15.5752C0.385458 15.4771 0.244822 15.3357 0.147461 15.166C0.0501651 14.9964 -0.000686795 14.8039 0 14.6084C0.000759924 14.4129 0.0528624 14.2206 0.151367 14.0518C0.705186 13.0987 1.49902 10.4855 1.49902 7.1123C1.49902 5.22598 2.24821 3.41686 3.58203 2.08301C4.91586 0.749181 6.72501 2.86013e-05 8.61133 0ZM6.0459 15.9707C6.18287 16.5482 6.51102 17.0625 6.97656 17.4307C7.44209 17.7988 8.01783 17.9998 8.61133 18C9.20486 17.9998 9.78152 17.7988 10.2471 17.4307C10.7124 17.0625 11.0398 16.548 11.1768 15.9707L11.2354 15.7246H5.9873L6.0459 15.9707ZM8.61133 0.724609C6.9173 0.724638 5.29259 1.39784 4.09473 2.5957C2.89687 3.79359 2.22363 5.41826 2.22363 7.1123C2.22363 10.4376 1.465 13.2404 0.779297 14.418C0.745325 14.4769 0.726562 14.5443 0.726562 14.6123C0.726562 14.6781 0.744491 14.7423 0.776367 14.7998L0.77832 14.8027C0.778818 14.8036 0.778793 14.8048 0.779297 14.8057C0.811978 14.8645 0.858942 14.913 0.916992 14.9473C0.975813 14.9819 1.04312 14.9995 1.11133 14.999H16.1123C16.1806 14.9995 16.2478 14.9819 16.3066 14.9473C16.3647 14.9131 16.4116 14.8636 16.4443 14.8047L16.4453 14.8057V14.8027L16.4473 14.7998C16.4792 14.7423 16.4971 14.6781 16.4971 14.6123C16.4971 14.5445 16.4792 14.4777 16.4453 14.4189L16.4443 14.418C15.7584 13.2352 14.999 10.4361 14.999 7.1123C14.999 5.41823 14.3258 3.79359 13.1279 2.5957C11.93 1.39785 10.3054 0.724609 8.61133 0.724609Z" stroke="white"/>
</svg>
