<svg width="17" height="21" viewBox="0 0 17 21" fill="none" xmlns="http://www.w3.org/2000/svg">
<path d="M15.9608 7.02694C14.6109 7.87501 13.7771 9.32886 13.7771 10.9443C13.7771 12.7616 14.8491 14.4173 16.477 15.1039C16.1593 16.1539 15.6829 17.1231 15.0873 18.0116C14.2139 19.2635 13.3007 20.5558 11.9508 20.5558C10.6008 20.5558 10.2038 19.7481 8.61566 19.7481C7.06722 19.7481 6.51137 20.5962 5.24086 20.5962C3.97035 20.5962 3.09687 19.425 2.10429 17.9712C0.79407 15.952 0.0397035 13.6096 0 11.1462C0 7.14809 2.54102 5.0077 5.08205 5.0077C6.43197 5.0077 7.54367 5.89616 8.37744 5.89616C9.17151 5.89616 10.442 4.96732 11.9508 4.96732C13.5389 4.92693 15.0476 5.69424 15.9608 7.02694ZM11.2361 3.27116C11.9111 2.46347 12.2684 1.45385 12.3081 0.403847C12.3081 0.282693 12.3081 0.121154 12.2684 0C11.117 0.121154 10.045 0.68654 9.29062 1.575C8.61566 2.34231 8.21863 3.31154 8.17892 4.36155C8.17892 4.4827 8.17892 4.60385 8.21863 4.72501C8.29803 4.72501 8.41714 4.76539 8.49655 4.76539C9.56854 4.68462 10.5611 4.11924 11.2361 3.27116Z" fill="white"/>
</svg>
