<svg width="20" height="20" viewBox="0 0 20 20" fill="none" xmlns="http://www.w3.org/2000/svg">
<path fill-rule="evenodd" clip-rule="evenodd" d="M12.9465 2.15793L5.70346 9.41393C5.63826 9.47623 5.58653 9.55123 5.55144 9.6343C5.51636 9.71737 5.49866 9.80675 5.49946 9.89693C5.49906 9.98912 5.51688 10.0805 5.55188 10.1658C5.58689 10.2511 5.6384 10.3286 5.70346 10.3939C8.32346 12.9499 10.8485 15.4169 13.2785 17.7949C13.4035 17.9119 13.9035 18.2029 14.2895 17.7709C14.6755 17.3379 14.4415 16.9609 14.2895 16.8049L7.22146 9.89693L13.9685 3.13793C14.2145 2.79859 14.1945 2.48559 13.9085 2.19893C13.6218 1.91226 13.3011 1.89793 12.9465 2.15793Z" fill="#3A3A3A"/>
</svg>
