<svg width="16" height="16" viewBox="0 0 16 16" fill="none" xmlns="http://www.w3.org/2000/svg">
<path fill-rule="evenodd" clip-rule="evenodd" d="M5.64322 1.72663L11.4376 7.53143C11.4898 7.58127 11.5312 7.64127 11.5592 7.70773C11.5873 7.77419 11.6015 7.8457 11.6008 7.91783C11.6011 7.99159 11.5869 8.06468 11.5589 8.13291C11.5309 8.20115 11.4897 8.26317 11.4376 8.31543C9.34162 10.3602 7.32162 12.3338 5.37762 14.2362C5.27762 14.3298 4.87762 14.5626 4.56882 14.217C4.26002 13.8706 4.44722 13.569 4.56882 13.4442L10.2232 7.91783L4.82562 2.51063C4.62882 2.23917 4.64482 1.98877 4.87362 1.75943C5.10296 1.5301 5.35949 1.51863 5.64322 1.72663Z" fill="#3A3A3A"/>
</svg>
