<svg width="17" height="9" viewBox="0 0 17 9" fill="none" xmlns="http://www.w3.org/2000/svg">
<path fill-rule="evenodd" clip-rule="evenodd" d="M0.185025 1.55354L7.44102 8.79654C7.50333 8.86174 7.57833 8.91347 7.6614 8.94856C7.74447 8.98364 7.83385 9.00134 7.92403 9.00054C8.01622 9.00094 8.10759 8.98312 8.19288 8.94812C8.27817 8.91311 8.3557 8.8616 8.42103 8.79654C10.977 6.17654 13.444 3.65154 15.822 1.22154C15.939 1.09654 16.23 0.59654 15.798 0.21054C15.365 -0.17546 14.988 0.0585399 14.832 0.21054L7.92403 7.27854L1.16503 0.53154C0.825692 0.28554 0.512692 0.30554 0.226025 0.59154C-0.0606417 0.878207 -0.0749749 1.19887 0.185025 1.55354Z" fill="#778437"/>
</svg>
