<svg width="15" height="15" viewBox="0 -1 21 22" fill="none" xmlns="http://www.w3.org/2000/svg">
<path d="M3.10254 0.0644531C3.72515 -0.0553864 4.37037 0.0455518 4.92676 0.349609C5.48296 0.653704 5.91605 1.14185 6.15137 1.73047L6.24805 1.9707L6.25293 1.9834L6.26562 1.98047C6.98038 1.79787 7.73521 1.8564 8.41309 2.14746C8.83518 2.32923 9.21725 2.59289 9.53613 2.92383C9.85502 3.25483 10.1046 3.64658 10.2705 4.0752C10.3314 4.2301 10.3296 4.40299 10.2656 4.55664C10.2016 4.71013 10.0805 4.83257 9.92773 4.89844L4.71289 7.14355C4.63402 7.17763 4.54881 7.19567 4.46289 7.19629C4.37711 7.19686 4.29213 7.18034 4.21289 7.14746C4.13354 7.11452 4.0612 7.06616 4.00098 7.00488C3.94085 6.94368 3.89385 6.87081 3.8623 6.79102C3.52002 5.91981 3.52641 4.94974 3.87988 4.08301C4.12867 3.46607 4.5445 2.93034 5.08105 2.53711L5.09082 2.53027L5.08594 2.51953L4.95996 2.20703C4.85269 1.93875 4.66795 1.70791 4.42871 1.5459C4.18951 1.38395 3.90703 1.29789 3.61816 1.29785C2.81982 1.29785 2.17295 1.94484 2.17285 2.74316V8.76562H18.1562C18.3263 8.76562 18.4891 8.83294 18.6094 8.95312C18.7296 9.07333 18.7978 9.23626 18.7979 9.40625C18.7979 9.57632 18.7296 9.74009 18.6094 9.86035C18.4892 9.98037 18.3261 10.0479 18.1562 10.0479H17.9043L17.9072 10.0645C17.913 10.1031 17.9166 10.1428 17.9189 10.1826C17.9218 10.2335 17.9234 10.2856 17.9229 10.3389V10.373C17.9229 10.7013 17.9222 10.8936 17.9082 11.1074C17.7842 13.0591 16.7302 14.8631 15.2012 16.042L15.1904 16.0498L15.1973 16.0615L15.2295 16.1191V16.1201L16.1045 17.8701H16.1055C16.1438 17.9455 16.1664 18.028 16.1729 18.1123C16.1793 18.1967 16.1691 18.282 16.1426 18.3623C16.1161 18.4424 16.0737 18.5162 16.0186 18.5801C15.9633 18.644 15.8959 18.6966 15.8203 18.7344C15.7446 18.7722 15.6616 18.795 15.5771 18.8008C15.4928 18.8065 15.4082 18.7956 15.3281 18.7686C15.248 18.7414 15.1739 18.6984 15.1104 18.6426C15.0469 18.5868 14.9952 18.5192 14.958 18.4434L14.1104 16.75L14.1035 16.7363L14.0898 16.7432C13.2166 17.1893 12.2529 17.4302 11.2725 17.4463H11.2656C10.6184 17.4708 9.98516 17.4854 9.40625 17.4854C8.82734 17.4854 8.19413 17.4708 7.54688 17.4463H7.54004L7.17285 17.4297C6.31975 17.3668 5.48661 17.1334 4.72266 16.7432L4.70898 16.7363L4.70215 16.75L3.85449 18.4434C3.81731 18.5192 3.76558 18.5868 3.70215 18.6426C3.63857 18.6984 3.56454 18.7414 3.48438 18.7686C3.40431 18.7956 3.31967 18.8065 3.23535 18.8008C3.15092 18.795 3.06791 18.7722 2.99219 18.7344C2.91665 18.6966 2.8492 18.644 2.79395 18.5801C2.7388 18.5162 2.69639 18.4424 2.66992 18.3623C2.64343 18.282 2.63322 18.1967 2.63965 18.1123C2.64609 18.028 2.66869 17.9455 2.70703 17.8701H2.70801L3.58203 16.1191L3.61523 16.0615L3.62207 16.0498L3.61133 16.042C2.17792 14.9368 1.16049 13.2823 0.9375 11.4717L0.904297 11.1074C0.891743 10.8632 0.886412 10.6186 0.889648 10.374V10.0479H0.65625C0.486357 10.0479 0.323347 9.98037 0.203125 9.86035C0.0828673 9.74009 0.0146484 9.57632 0.0146484 9.40625C0.0147085 9.23626 0.0829208 9.07333 0.203125 8.95312C0.323372 8.83294 0.486233 8.76562 0.65625 8.76562H0.889648V2.74316C0.88964 2.10914 1.11094 1.49474 1.51465 1.00586C1.91838 0.517018 2.47996 0.184315 3.10254 0.0644531ZM7.03418 3.15918C6.73352 3.16724 6.43762 3.24078 6.16797 3.37402C5.66633 3.62179 5.27434 4.0466 5.06738 4.56641C4.92857 4.9084 4.87161 5.27852 4.90039 5.64648L4.90137 5.66699L4.9209 5.6582L8.75293 4.00879L8.77148 4.00098L8.75879 3.98535C8.53689 3.69657 8.24536 3.46961 7.91016 3.32715C7.63384 3.20859 7.33474 3.15116 7.03418 3.15918ZM16.6396 10.2666C16.6359 10.2099 16.6116 10.1563 16.5713 10.1162C16.531 10.0763 16.4775 10.0523 16.4209 10.0488H16.4062L16.335 10.0479H2.39062C2.33143 10.0519 2.27581 10.0787 2.23535 10.1221C2.19507 10.1654 2.17278 10.2221 2.17285 10.2812V10.3545C2.17285 10.7058 2.17218 10.8569 2.18359 11.0264C2.34602 13.5904 4.54827 15.8769 7.10352 16.1357C7.27464 16.1533 7.37 16.1553 7.59473 16.1641C8.23174 16.1877 8.84871 16.2031 9.40625 16.2031C9.96379 16.2031 10.5808 16.1877 11.2178 16.1641C11.4426 16.1553 11.5379 16.1523 11.709 16.1348C14.2642 15.8768 16.4666 13.5904 16.6299 11.0264C16.6404 10.857 16.6396 10.7058 16.6396 10.3545V10.2666Z" fill="#3A3A3A" stroke="white" stroke-width="0.03"/>
</svg>
