<svg width="24" height="24" viewBox="0 0 24 24" fill="none" xmlns="http://www.w3.org/2000/svg">
<path d="M11.999 2.4375C13.9384 2.4375 15.7986 3.20777 17.1699 4.5791C18.5413 5.95046 19.3115 7.8106 19.3115 9.75C19.3115 13.0996 20.1002 15.6747 20.6309 16.5879H20.6299C20.7462 16.787 20.8076 17.0135 20.8086 17.2441C20.8096 17.4748 20.7504 17.7022 20.6357 17.9023C20.5212 18.1024 20.3556 18.2689 20.1562 18.3848C19.9568 18.5007 19.7297 18.562 19.499 18.5625H15.5127C15.3761 19.3963 14.9476 20.1541 14.3037 20.7012C13.6597 21.2482 12.8421 21.5488 11.9971 21.5488C11.1521 21.5488 10.3344 21.2482 9.69043 20.7012C9.04667 20.1541 8.61804 19.3962 8.48145 18.5625H4.49902C4.26823 18.5623 4.04148 18.5015 3.8418 18.3857C3.64211 18.27 3.4762 18.1035 3.36133 17.9033C3.24649 17.7031 3.18664 17.4759 3.1875 17.2451C3.1884 17.0143 3.24979 16.7873 3.36621 16.5879C3.89684 15.6748 4.68652 13.1006 4.68652 9.75C4.68652 7.81062 5.45679 5.95046 6.82812 4.5791C8.19946 3.20776 10.0597 2.43752 11.999 2.4375ZM9.62793 18.5625C9.75451 19.0962 10.058 19.5719 10.4883 19.9121C10.9184 20.2522 11.4507 20.4373 11.999 20.4375C12.5475 20.4373 13.0805 20.2524 13.5107 19.9121C13.9409 19.5719 14.2435 19.0962 14.3701 18.5625H9.62793ZM11.999 3.5625C10.358 3.56252 8.78438 4.21464 7.62402 5.375C6.46367 6.53538 5.81152 8.10899 5.81152 9.75C5.81152 13.0959 5.04952 15.9375 4.33984 17.1562C4.32339 17.1848 4.31445 17.2171 4.31445 17.25C4.31445 17.2829 4.32339 17.3152 4.33984 17.3438C4.35528 17.3724 4.37816 17.3966 4.40625 17.4131C4.43432 17.4296 4.46646 17.4379 4.49902 17.4375H19.5C19.5326 17.438 19.5647 17.4296 19.5928 17.4131C19.6208 17.3966 19.6437 17.3724 19.6592 17.3438C19.6756 17.3152 19.6846 17.2829 19.6846 17.25C19.6846 17.2171 19.6756 17.1848 19.6592 17.1562C18.9495 15.9328 18.1865 13.0949 18.1865 9.75C18.1865 8.10897 17.5344 6.53538 16.374 5.375C15.2136 4.21464 13.64 3.5625 11.999 3.5625Z" fill="#3A3A3A"/>
<path d="M11.999 2.4375C13.9384 2.4375 15.7986 3.20777 17.1699 4.5791C18.5413 5.95046 19.3115 7.8106 19.3115 9.75C19.3115 13.0996 20.1002 15.6747 20.6309 16.5879H20.6299C20.7462 16.787 20.8076 17.0135 20.8086 17.2441C20.8096 17.4748 20.7504 17.7022 20.6357 17.9023C20.5212 18.1024 20.3556 18.2689 20.1562 18.3848C19.9568 18.5007 19.7297 18.562 19.499 18.5625H15.5127C15.3761 19.3963 14.9476 20.1541 14.3037 20.7012C13.6597 21.2482 12.8421 21.5488 11.9971 21.5488C11.1521 21.5488 10.3344 21.2482 9.69043 20.7012C9.04667 20.1541 8.61804 19.3962 8.48145 18.5625H4.49902C4.26823 18.5623 4.04148 18.5015 3.8418 18.3857C3.64211 18.27 3.4762 18.1035 3.36133 17.9033C3.24649 17.7031 3.18664 17.4759 3.1875 17.2451C3.1884 17.0143 3.24979 16.7873 3.36621 16.5879C3.89684 15.6748 4.68652 13.1006 4.68652 9.75C4.68652 7.81062 5.45679 5.95046 6.82812 4.5791C8.19946 3.20776 10.0597 2.43752 11.999 2.4375ZM9.62793 18.5625C9.75451 19.0962 10.058 19.5719 10.4883 19.9121C10.9184 20.2522 11.4507 20.4373 11.999 20.4375C12.5475 20.4373 13.0805 20.2524 13.5107 19.9121C13.9409 19.5719 14.2435 19.0962 14.3701 18.5625H9.62793ZM11.999 3.5625C10.358 3.56252 8.78438 4.21464 7.62402 5.375C6.46367 6.53538 5.81152 8.10899 5.81152 9.75C5.81152 13.0959 5.04952 15.9375 4.33984 17.1562C4.32339 17.1848 4.31445 17.2171 4.31445 17.25C4.31445 17.2829 4.32339 17.3152 4.33984 17.3438C4.35528 17.3724 4.37816 17.3966 4.40625 17.4131C4.43432 17.4296 4.46646 17.4379 4.49902 17.4375H19.5C19.5326 17.438 19.5647 17.4296 19.5928 17.4131C19.6208 17.3966 19.6437 17.3724 19.6592 17.3438C19.6756 17.3152 19.6846 17.2829 19.6846 17.25C19.6846 17.2171 19.6756 17.1848 19.6592 17.1562C18.9495 15.9328 18.1865 13.0949 18.1865 9.75C18.1865 8.10897 17.5344 6.53538 16.374 5.375C15.2136 4.21464 13.64 3.5625 11.999 3.5625Z" stroke="white"/>
</svg>
