<svg width="17" height="19" viewBox="-2 -2 21 23" fill="none" xmlns="http://www.w3.org/2000/svg">
<path d="M8.47168 0C10.3209 0 12.0948 0.734434 13.4023 2.04199C14.7099 3.34959 15.4443 5.12343 15.4443 6.97266C15.4443 10.3605 16.2395 13.0004 16.8096 13.9814C16.8953 14.1283 16.9407 14.2969 16.9414 14.4688C16.9421 14.6396 16.8974 14.8078 16.8125 14.9561C16.7276 15.1042 16.6056 15.2277 16.458 15.3135C16.3102 15.3994 16.1416 15.445 15.9707 15.4453H11.9854C11.8396 15.4454 11.7125 15.5376 11.665 15.6709L11.6504 15.7305C11.5268 16.4845 11.139 17.1703 10.5566 17.665C9.97411 18.1599 9.23406 18.4316 8.46973 18.4316C7.70549 18.4316 6.96625 18.1598 6.38379 17.665C5.80135 17.1703 5.41368 16.4846 5.29004 15.7305C5.26648 15.5867 5.15471 15.4756 5.01562 15.4502L4.9541 15.4453H0.97168C0.800924 15.4451 0.633127 15.4 0.485352 15.3145C0.33736 15.2287 0.214019 15.1044 0.128906 14.9561C0.0439612 14.8078 -0.000664232 14.6396 0 14.4688C0.000686587 14.2978 0.0466367 14.1301 0.132812 13.9824C0.702868 13.0014 1.49902 10.3616 1.49902 6.97266C1.49902 5.12346 2.23346 3.34958 3.54102 2.04199C4.84858 0.734425 6.6225 3.36112e-05 8.47168 0ZM6.10059 15.4453C5.99671 15.4454 5.89841 15.4927 5.83398 15.5742C5.76957 15.6557 5.7466 15.7622 5.77051 15.8633C5.91475 16.4714 6.25974 17.0137 6.75 17.4014C7.24021 17.7889 7.84676 17.9998 8.47168 18C9.09672 17.9998 9.70408 17.7891 10.1943 17.4014C10.6845 17.0137 11.0296 16.4714 11.1738 15.8633C11.1977 15.7622 11.1738 15.6557 11.1094 15.5742C11.0449 15.4927 10.9467 15.4453 10.8428 15.4453H6.10059ZM8.47168 0.445312C6.74052 0.445346 5.08056 1.13331 3.85645 2.35742C2.63234 3.58156 1.94434 5.24149 1.94434 6.97266C1.94434 10.2836 1.18747 13.0593 0.518555 14.208L0.517578 14.209C0.471367 14.2891 0.447266 14.3802 0.447266 14.4727C0.447266 14.5615 0.469958 14.6488 0.512695 14.7266C0.514312 14.7295 0.515904 14.7334 0.517578 14.7363C0.562415 14.8163 0.627928 14.8822 0.707031 14.9287C0.787287 14.9758 0.878658 14.9994 0.97168 14.999L15.9727 15C16.0659 15.0005 16.1579 14.976 16.2383 14.9287C16.3171 14.8823 16.381 14.815 16.4258 14.7354L16.4268 14.7363C16.4278 14.7346 16.4277 14.7322 16.4287 14.7305C16.4294 14.7293 16.43 14.7277 16.4307 14.7266C16.4736 14.6487 16.4971 14.5617 16.4971 14.4727C16.4971 14.3801 16.473 14.2891 16.4268 14.209L16.4258 14.208C15.7565 13.0539 14.999 10.2818 14.999 6.97266C14.999 5.24166 14.3118 3.58152 13.0879 2.35742C11.8637 1.13328 10.2029 0.445313 8.47168 0.445312Z" fill="#3A3A3A"/>
<path d="M8.47168 0C10.3209 0 12.0948 0.734434 13.4023 2.04199C14.7099 3.34959 15.4443 5.12343 15.4443 6.97266C15.4443 10.3605 16.2395 13.0004 16.8096 13.9814C16.8953 14.1283 16.9407 14.2969 16.9414 14.4688C16.9421 14.6396 16.8974 14.8078 16.8125 14.9561C16.7276 15.1042 16.6056 15.2277 16.458 15.3135C16.3102 15.3994 16.1416 15.445 15.9707 15.4453H11.9854C11.8396 15.4454 11.7125 15.5376 11.665 15.6709L11.6504 15.7305C11.5268 16.4845 11.139 17.1703 10.5566 17.665C9.97411 18.1599 9.23406 18.4316 8.46973 18.4316C7.70549 18.4316 6.96625 18.1598 6.38379 17.665C5.80135 17.1703 5.41368 16.4846 5.29004 15.7305C5.26648 15.5867 5.15471 15.4756 5.01562 15.4502L4.9541 15.4453H0.97168C0.800924 15.4451 0.633127 15.4 0.485352 15.3145C0.33736 15.2287 0.214019 15.1044 0.128906 14.9561C0.0439612 14.8078 -0.000664232 14.6396 0 14.4688C0.000686587 14.2978 0.0466367 14.1301 0.132812 13.9824C0.702868 13.0014 1.49902 10.3616 1.49902 6.97266C1.49902 5.12346 2.23346 3.34958 3.54102 2.04199C4.84858 0.734425 6.6225 3.36112e-05 8.47168 0ZM6.10059 15.4453C5.99671 15.4454 5.89841 15.4927 5.83398 15.5742C5.76957 15.6557 5.7466 15.7622 5.77051 15.8633C5.91475 16.4714 6.25974 17.0137 6.75 17.4014C7.24021 17.7889 7.84676 17.9998 8.47168 18C9.09672 17.9998 9.70408 17.7891 10.1943 17.4014C10.6845 17.0137 11.0296 16.4714 11.1738 15.8633C11.1977 15.7622 11.1738 15.6557 11.1094 15.5742C11.0449 15.4927 10.9467 15.4453 10.8428 15.4453H6.10059ZM8.47168 0.445312C6.74052 0.445346 5.08056 1.13331 3.85645 2.35742C2.63234 3.58156 1.94434 5.24149 1.94434 6.97266C1.94434 10.2836 1.18747 13.0593 0.518555 14.208L0.517578 14.209C0.471367 14.2891 0.447266 14.3802 0.447266 14.4727C0.447266 14.5615 0.469958 14.6488 0.512695 14.7266C0.514312 14.7295 0.515904 14.7334 0.517578 14.7363C0.562415 14.8163 0.627928 14.8822 0.707031 14.9287C0.787287 14.9758 0.878658 14.9994 0.97168 14.999L15.9727 15C16.0659 15.0005 16.1579 14.976 16.2383 14.9287C16.3171 14.8823 16.381 14.815 16.4258 14.7354L16.4268 14.7363C16.4278 14.7346 16.4277 14.7322 16.4287 14.7305C16.4294 14.7293 16.43 14.7277 16.4307 14.7266C16.4736 14.6487 16.4971 14.5617 16.4971 14.4727C16.4971 14.3801 16.473 14.2891 16.4268 14.209L16.4258 14.208C15.7565 13.0539 14.999 10.2818 14.999 6.97266C14.999 5.24166 14.3118 3.58152 13.0879 2.35742C11.8637 1.13328 10.2029 0.445313 8.47168 0.445312Z" stroke="white"/>
</svg>
