<svg width="18" height="19" viewBox="0 0 18 19" fill="none" xmlns="http://www.w3.org/2000/svg">
<path d="M8.6416 0C10.5359 0 12.3529 0.75236 13.6924 2.0918C15.0319 3.43128 15.7842 5.24827 15.7842 7.14258C15.7842 10.5114 16.5756 13.1193 17.126 14.0664C17.2269 14.2394 17.2804 14.4365 17.2812 14.6377C17.2821 14.8383 17.2305 15.0358 17.1309 15.21C17.0311 15.3842 16.8865 15.53 16.7129 15.6309C16.5827 15.7064 16.4392 15.7555 16.291 15.7754L16.1416 15.7852H12.1553C12.0928 15.7852 12.0373 15.8193 12.0078 15.8711L11.9873 15.9277C11.8572 16.7217 11.4491 17.4439 10.8359 17.9648C10.2227 18.4856 9.44418 18.7715 8.63965 18.7715C7.83509 18.7714 7.05655 18.4857 6.44336 17.9648C5.83014 17.4439 5.42212 16.7218 5.29199 15.9277C5.28189 15.8661 5.23935 15.8167 5.18359 15.7959L5.12402 15.7852H1.1416C0.940722 15.785 0.743129 15.7316 0.569336 15.6309C0.395605 15.5301 0.251302 15.3852 0.151367 15.2109C0.0514388 15.0367 -0.000780883 14.8386 0 14.6377C0.000858182 14.4369 0.054982 14.2398 0.15625 14.0664L0.261719 13.8691C0.802269 12.7901 1.49902 10.3017 1.49902 7.14258C1.49902 5.2483 2.25138 3.43127 3.59082 2.0918C4.93027 0.75235 6.74734 3.53838e-05 8.6416 0ZM6.27051 15.7852C6.21869 15.7852 6.16988 15.809 6.1377 15.8496C6.10549 15.8904 6.09353 15.9436 6.10547 15.9941C6.24088 16.5651 6.56514 17.0735 7.02539 17.4375C7.48561 17.8014 8.05487 17.9998 8.6416 18C9.22838 17.9998 9.79854 17.8015 10.2588 17.4375C10.7188 17.0735 11.0424 16.5649 11.1777 15.9941C11.1897 15.9437 11.1786 15.8903 11.1465 15.8496C11.1142 15.8088 11.0647 15.7852 11.0127 15.7852H6.27051ZM8.6416 0.785156C6.95554 0.785192 5.33872 1.45523 4.14648 2.64746C2.95426 3.83972 2.28418 5.4565 2.28418 7.14258C2.28418 10.4709 1.52425 13.2791 0.834961 14.4629C0.803585 14.5172 0.787109 14.5798 0.787109 14.6426C0.787109 14.7053 0.803623 14.767 0.834961 14.8213L0.835938 14.8203C0.866082 14.8746 0.909307 14.9206 0.962891 14.9521C1.01705 14.984 1.07881 14.9995 1.1416 14.999L16.1426 15C16.2054 15.0005 16.2671 14.9839 16.3213 14.9521C16.3748 14.9206 16.4181 14.8746 16.4482 14.8203L16.4492 14.8213V14.8184L16.4521 14.8164L16.4512 14.8154C16.4806 14.7624 16.4971 14.7033 16.4971 14.6426C16.4971 14.6112 16.4934 14.5799 16.4854 14.5498L16.4492 14.4639C15.7597 13.2752 14.999 10.4699 14.999 7.14258C14.999 5.45646 14.329 3.83972 13.1367 2.64746C11.9445 1.45524 10.3277 0.785156 8.6416 0.785156Z" fill="#3A3A3A"/>
<path d="M8.6416 0C10.5359 0 12.3529 0.75236 13.6924 2.0918C15.0319 3.43128 15.7842 5.24827 15.7842 7.14258C15.7842 10.5114 16.5756 13.1193 17.126 14.0664C17.2269 14.2394 17.2804 14.4365 17.2812 14.6377C17.2821 14.8383 17.2305 15.0358 17.1309 15.21C17.0311 15.3842 16.8865 15.53 16.7129 15.6309C16.5827 15.7064 16.4392 15.7555 16.291 15.7754L16.1416 15.7852H12.1553C12.0928 15.7852 12.0373 15.8193 12.0078 15.8711L11.9873 15.9277C11.8572 16.7217 11.4491 17.4439 10.8359 17.9648C10.2227 18.4856 9.44418 18.7715 8.63965 18.7715C7.83509 18.7714 7.05655 18.4857 6.44336 17.9648C5.83014 17.4439 5.42212 16.7218 5.29199 15.9277C5.28189 15.8661 5.23935 15.8167 5.18359 15.7959L5.12402 15.7852H1.1416C0.940722 15.785 0.743129 15.7316 0.569336 15.6309C0.395605 15.5301 0.251302 15.3852 0.151367 15.2109C0.0514388 15.0367 -0.000780883 14.8386 0 14.6377C0.000858182 14.4369 0.054982 14.2398 0.15625 14.0664L0.261719 13.8691C0.802269 12.7901 1.49902 10.3017 1.49902 7.14258C1.49902 5.2483 2.25138 3.43127 3.59082 2.0918C4.93027 0.75235 6.74734 3.53838e-05 8.6416 0ZM6.27051 15.7852C6.21869 15.7852 6.16988 15.809 6.1377 15.8496C6.10549 15.8904 6.09353 15.9436 6.10547 15.9941C6.24088 16.5651 6.56514 17.0735 7.02539 17.4375C7.48561 17.8014 8.05487 17.9998 8.6416 18C9.22838 17.9998 9.79854 17.8015 10.2588 17.4375C10.7188 17.0735 11.0424 16.5649 11.1777 15.9941C11.1897 15.9437 11.1786 15.8903 11.1465 15.8496C11.1142 15.8088 11.0647 15.7852 11.0127 15.7852H6.27051ZM8.6416 0.785156C6.95554 0.785192 5.33872 1.45523 4.14648 2.64746C2.95426 3.83972 2.28418 5.4565 2.28418 7.14258C2.28418 10.4709 1.52425 13.2791 0.834961 14.4629C0.803585 14.5172 0.787109 14.5798 0.787109 14.6426C0.787109 14.7053 0.803623 14.767 0.834961 14.8213L0.835938 14.8203C0.866082 14.8746 0.909307 14.9206 0.962891 14.9521C1.01705 14.984 1.07881 14.9995 1.1416 14.999L16.1426 15C16.2054 15.0005 16.2671 14.9839 16.3213 14.9521C16.3748 14.9206 16.4181 14.8746 16.4482 14.8203L16.4492 14.8213V14.8184L16.4521 14.8164L16.4512 14.8154C16.4806 14.7624 16.4971 14.7033 16.4971 14.6426C16.4971 14.6112 16.4934 14.5799 16.4854 14.5498L16.4492 14.4639C15.7597 13.2752 14.999 10.4699 14.999 7.14258C14.999 5.45646 14.329 3.83972 13.1367 2.64746C11.9445 1.45524 10.3277 0.785156 8.6416 0.785156Z" stroke="white"/>
</svg>
