<svg width="17" height="19" viewBox="0 0 17 19" fill="none" xmlns="http://www.w3.org/2000/svg">
<path d="M8.45117 0C10.2951 0 12.0633 0.732323 13.3672 2.03613C14.5896 3.2585 15.3103 4.88901 15.3955 6.60742L15.4033 6.95215C15.4033 10.3419 16.1991 12.9854 16.7715 13.9707C16.8554 14.1144 16.9007 14.2798 16.9014 14.4482C16.9021 14.6156 16.8586 14.7805 16.7754 14.9258C16.6922 15.071 16.5715 15.1913 16.4268 15.2754C16.282 15.3595 16.1176 15.4039 15.9502 15.4043H11.9648C11.7887 15.4044 11.638 15.5322 11.6094 15.7061C11.4866 16.4556 11.1013 17.1371 10.5225 17.6289C9.94355 18.1207 9.20881 18.3916 8.44922 18.3916C7.68969 18.3916 6.95484 18.1206 6.37598 17.6289C5.79721 17.1371 5.41186 16.4555 5.28906 15.7061C5.26039 15.5322 5.10982 15.4043 4.93359 15.4043H0.951172C0.783817 15.4041 0.619415 15.3603 0.474609 15.2764C0.329662 15.1923 0.209339 15.0711 0.125977 14.9258C0.0426912 14.7805 -0.00065092 14.6157 0 14.4482C0.000687106 14.2808 0.0454286 14.1163 0.129883 13.9717C0.702246 12.9865 1.49902 10.3431 1.49902 6.95215C1.49902 5.10826 2.23135 3.33997 3.53516 2.03613C4.83898 0.732314 6.6073 3.1109e-05 8.45117 0ZM6.08008 15.4043C5.97017 15.4044 5.86607 15.4548 5.79785 15.541C5.72958 15.6274 5.70506 15.7405 5.73047 15.8477C5.87575 16.4602 6.22302 17.006 6.7168 17.3965C7.21057 17.787 7.82166 17.9998 8.45117 18L8.68652 17.9893C9.23185 17.9431 9.75356 17.7381 10.1855 17.3965C10.6793 17.006 11.0276 16.4602 11.1729 15.8477C11.1982 15.7406 11.1727 15.6273 11.1045 15.541C11.0362 15.4548 10.9322 15.4043 10.8223 15.4043H6.08008ZM8.45117 0.404297C6.71471 0.404328 5.04916 1.0944 3.82129 2.32227C2.59343 3.55015 1.90332 5.21567 1.90332 6.95215C1.90332 10.2608 1.14695 13.032 0.480469 14.1768V14.1787C0.444398 14.2412 0.420464 14.3098 0.411133 14.3809L0.407227 14.4521L0.411133 14.5234C0.419993 14.5909 0.442568 14.6559 0.475586 14.7158L0.474609 14.7168C0.521258 14.8035 0.590959 14.8759 0.675781 14.9258C0.759184 14.9748 0.854471 14.9995 0.951172 14.999H15.9521C16.0489 14.9995 16.1441 14.9748 16.2275 14.9258C16.3096 14.8775 16.3763 14.8075 16.4229 14.7246L16.4238 14.7256L16.4277 14.7158C16.4723 14.6349 16.4971 14.5446 16.4971 14.4521C16.4971 14.3562 16.4717 14.2618 16.4238 14.1787L16.4229 14.1777C15.7976 13.0997 15.0934 10.5991 15.0078 7.56543L14.999 6.95215C14.999 5.21564 14.3089 3.55016 13.0811 2.32227C11.8532 1.09441 10.1876 0.404297 8.45117 0.404297Z" fill="#3A3A3A"/>
<path d="M8.45117 0C10.2951 0 12.0633 0.732323 13.3672 2.03613C14.5896 3.2585 15.3103 4.88901 15.3955 6.60742L15.4033 6.95215C15.4033 10.3419 16.1991 12.9854 16.7715 13.9707C16.8554 14.1144 16.9007 14.2798 16.9014 14.4482C16.9021 14.6156 16.8586 14.7805 16.7754 14.9258C16.6922 15.071 16.5715 15.1913 16.4268 15.2754C16.282 15.3595 16.1176 15.4039 15.9502 15.4043H11.9648C11.7887 15.4044 11.638 15.5322 11.6094 15.7061C11.4866 16.4556 11.1013 17.1371 10.5225 17.6289C9.94355 18.1207 9.20881 18.3916 8.44922 18.3916C7.68969 18.3916 6.95484 18.1206 6.37598 17.6289C5.79721 17.1371 5.41186 16.4555 5.28906 15.7061C5.26039 15.5322 5.10982 15.4043 4.93359 15.4043H0.951172C0.783817 15.4041 0.619415 15.3603 0.474609 15.2764C0.329662 15.1923 0.209339 15.0711 0.125977 14.9258C0.0426912 14.7805 -0.00065092 14.6157 0 14.4482C0.000687106 14.2808 0.0454286 14.1163 0.129883 13.9717C0.702246 12.9865 1.49902 10.3431 1.49902 6.95215C1.49902 5.10826 2.23135 3.33997 3.53516 2.03613C4.83898 0.732314 6.6073 3.1109e-05 8.45117 0ZM6.08008 15.4043C5.97017 15.4044 5.86607 15.4548 5.79785 15.541C5.72958 15.6274 5.70506 15.7405 5.73047 15.8477C5.87575 16.4602 6.22302 17.006 6.7168 17.3965C7.21057 17.787 7.82166 17.9998 8.45117 18L8.68652 17.9893C9.23185 17.9431 9.75356 17.7381 10.1855 17.3965C10.6793 17.006 11.0276 16.4602 11.1729 15.8477C11.1982 15.7406 11.1727 15.6273 11.1045 15.541C11.0362 15.4548 10.9322 15.4043 10.8223 15.4043H6.08008ZM8.45117 0.404297C6.71471 0.404328 5.04916 1.0944 3.82129 2.32227C2.59343 3.55015 1.90332 5.21567 1.90332 6.95215C1.90332 10.2608 1.14695 13.032 0.480469 14.1768V14.1787C0.444398 14.2412 0.420464 14.3098 0.411133 14.3809L0.407227 14.4521L0.411133 14.5234C0.419993 14.5909 0.442568 14.6559 0.475586 14.7158L0.474609 14.7168C0.521258 14.8035 0.590959 14.8759 0.675781 14.9258C0.759184 14.9748 0.854471 14.9995 0.951172 14.999H15.9521C16.0489 14.9995 16.1441 14.9748 16.2275 14.9258C16.3096 14.8775 16.3763 14.8075 16.4229 14.7246L16.4238 14.7256L16.4277 14.7158C16.4723 14.6349 16.4971 14.5446 16.4971 14.4521C16.4971 14.3562 16.4717 14.2618 16.4238 14.1787L16.4229 14.1777C15.7976 13.0997 15.0934 10.5991 15.0078 7.56543L14.999 6.95215C14.999 5.21564 14.3089 3.55016 13.0811 2.32227C11.8532 1.09441 10.1876 0.404297 8.45117 0.404297Z" stroke="white"/>
</svg>
