<svg width="18" height="19" viewBox="0 0 18 19" fill="none" xmlns="http://www.w3.org/2000/svg">
<path d="M8.71191 0C10.6248 0 12.4599 0.760678 13.8125 2.11328C15.1648 3.46585 15.9248 5.30022 15.9248 7.21289C15.9248 10.5738 16.7146 13.1685 17.2568 14.1016C17.3642 14.2854 17.421 14.4946 17.4219 14.708C17.4227 14.921 17.3675 15.1306 17.2617 15.3154C17.1558 15.5004 17.0026 15.6546 16.8184 15.7617C16.6804 15.8419 16.5282 15.8939 16.3711 15.915L16.2119 15.9258H12.2256C12.1768 15.9259 12.135 15.9607 12.127 16.0088C11.9942 16.8191 11.5779 17.5562 10.9521 18.0879C10.3262 18.6196 9.53122 18.9121 8.70996 18.9121C7.88878 18.9121 7.0946 18.6195 6.46875 18.0879C5.84285 17.5562 5.42575 16.8192 5.29297 16.0088C5.28689 15.9727 5.26216 15.9438 5.22949 15.9316L5.19434 15.9258H1.21191C0.998709 15.9256 0.788949 15.8686 0.604492 15.7617C0.420182 15.6548 0.267181 15.5012 0.161133 15.3164C0.0550162 15.1314 -0.000828989 14.9213 0 14.708C0.000858333 14.4948 0.0585068 14.2857 0.166016 14.1016C0.708238 13.1685 1.5 10.5748 1.5 7.21289C1.5 5.30005 2.25974 3.46588 3.6123 2.11328C4.96488 0.760709 6.79909 3.81315e-05 8.71191 0ZM6.34082 15.9258C6.31048 15.9259 6.2816 15.9392 6.2627 15.9629C6.24373 15.9869 6.23708 16.0191 6.24414 16.0488C6.37596 16.6042 6.69096 17.099 7.13867 17.4531C7.58654 17.8073 8.14092 17.9998 8.71191 18C9.28293 17.9998 9.83727 17.8073 10.2852 17.4531C10.733 17.099 11.0489 16.6043 11.1807 16.0488C11.1877 16.0191 11.1801 15.9869 11.1611 15.9629C11.1422 15.9392 11.1134 15.9258 11.083 15.9258H6.34082ZM8.71191 0.925781C7.04462 0.925819 5.44566 1.58776 4.2666 2.7666C3.08747 3.94574 2.4248 5.54534 2.4248 7.21289C2.4248 10.5484 1.66349 13.3701 0.96582 14.5684C0.940588 14.6121 0.927734 14.6624 0.927734 14.7129C0.927734 14.7633 0.940684 14.8128 0.96582 14.8564C0.989887 14.9005 1.0251 14.9364 1.06836 14.9619C1.1118 14.9875 1.16154 14.9995 1.21191 14.999L16.2129 15C16.2633 15.0005 16.3129 14.9875 16.3564 14.9619C16.3996 14.9365 16.4339 14.8993 16.458 14.8555L16.459 14.8564C16.4842 14.8128 16.4971 14.7633 16.4971 14.7129C16.4971 14.6625 16.4842 14.613 16.459 14.5693C15.7612 13.3664 15 10.5475 15 7.21289C15 5.54534 14.3373 3.94574 13.1582 2.7666C11.9791 1.58751 10.3794 0.925781 8.71191 0.925781Z" fill="#3A3A3A"/>
<path d="M8.71191 0C10.6248 0 12.4599 0.760678 13.8125 2.11328C15.1648 3.46585 15.9248 5.30022 15.9248 7.21289C15.9248 10.5738 16.7146 13.1685 17.2568 14.1016C17.3642 14.2854 17.421 14.4946 17.4219 14.708C17.4227 14.921 17.3675 15.1306 17.2617 15.3154C17.1558 15.5004 17.0026 15.6546 16.8184 15.7617C16.6804 15.8419 16.5282 15.8939 16.3711 15.915L16.2119 15.9258H12.2256C12.1768 15.9259 12.135 15.9607 12.127 16.0088C11.9942 16.8191 11.5779 17.5562 10.9521 18.0879C10.3262 18.6196 9.53122 18.9121 8.70996 18.9121C7.88878 18.9121 7.0946 18.6195 6.46875 18.0879C5.84285 17.5562 5.42575 16.8192 5.29297 16.0088C5.28689 15.9727 5.26216 15.9438 5.22949 15.9316L5.19434 15.9258H1.21191C0.998709 15.9256 0.788949 15.8686 0.604492 15.7617C0.420182 15.6548 0.267181 15.5012 0.161133 15.3164C0.0550162 15.1314 -0.000828989 14.9213 0 14.708C0.000858333 14.4948 0.0585068 14.2857 0.166016 14.1016C0.708238 13.1685 1.5 10.5748 1.5 7.21289C1.5 5.30005 2.25974 3.46588 3.6123 2.11328C4.96488 0.760709 6.79909 3.81315e-05 8.71191 0ZM6.34082 15.9258C6.31048 15.9259 6.2816 15.9392 6.2627 15.9629C6.24373 15.9869 6.23708 16.0191 6.24414 16.0488C6.37596 16.6042 6.69096 17.099 7.13867 17.4531C7.58654 17.8073 8.14092 17.9998 8.71191 18C9.28293 17.9998 9.83727 17.8073 10.2852 17.4531C10.733 17.099 11.0489 16.6043 11.1807 16.0488C11.1877 16.0191 11.1801 15.9869 11.1611 15.9629C11.1422 15.9392 11.1134 15.9258 11.083 15.9258H6.34082ZM8.71191 0.925781C7.04462 0.925819 5.44566 1.58776 4.2666 2.7666C3.08747 3.94574 2.4248 5.54534 2.4248 7.21289C2.4248 10.5484 1.66349 13.3701 0.96582 14.5684C0.940588 14.6121 0.927734 14.6624 0.927734 14.7129C0.927734 14.7633 0.940684 14.8128 0.96582 14.8564C0.989887 14.9005 1.0251 14.9364 1.06836 14.9619C1.1118 14.9875 1.16154 14.9995 1.21191 14.999L16.2129 15C16.2633 15.0005 16.3129 14.9875 16.3564 14.9619C16.3996 14.9365 16.4339 14.8993 16.458 14.8555L16.459 14.8564C16.4842 14.8128 16.4971 14.7633 16.4971 14.7129C16.4971 14.6625 16.4842 14.613 16.459 14.5693C15.7612 13.3664 15 10.5475 15 7.21289C15 5.54534 14.3373 3.94574 13.1582 2.7666C11.9791 1.58751 10.3794 0.925781 8.71191 0.925781Z" stroke="white"/>
</svg>
