<svg width="17" height="19" viewBox="0 0 17 19" fill="none" xmlns="http://www.w3.org/2000/svg">
<path d="M8.46094 0C10.3075 0 12.0781 0.733384 13.3838 2.03906C14.6895 3.34478 15.4229 5.11533 15.4229 6.96191C15.4229 10.3507 16.2188 12.9924 16.79 13.9756C16.8746 14.1205 16.9192 14.2878 16.9199 14.458C16.9206 14.6273 16.8778 14.794 16.7939 14.9404C16.7099 15.0871 16.5884 15.209 16.4424 15.2939C16.3335 15.3572 16.213 15.398 16.0889 15.415L15.9609 15.4238H11.8047C11.7312 15.4238 11.6682 15.4774 11.6563 15.5498L11.6289 15.7178C11.5057 16.4695 11.1197 17.1532 10.5391 17.6465C9.95835 18.1398 9.22093 18.4102 8.45899 18.4102C7.69709 18.4101 6.95958 18.1398 6.37891 17.6465C5.79836 17.1532 5.41224 16.4695 5.28907 15.7178L5.26172 15.5498C5.24981 15.4773 5.18674 15.4238 5.11329 15.4238H0.960942C0.791698 15.4237 0.625604 15.3795 0.479497 15.2949C0.333261 15.2101 0.211202 15.0881 0.126958 14.9414C0.0428697 14.7948 -0.000510501 14.628 4.5329e-06 14.459C0.000662573 14.2897 0.0457103 14.1225 0.130864 13.9766C0.702065 12.9934 1.49903 10.3518 1.49903 6.96191C1.49903 5.11536 2.23241 3.34477 3.53809 2.03906C4.84378 0.733377 6.6144 3.13922e-05 8.46094 0ZM5.83692 15.4238C5.79104 15.4238 5.74719 15.4454 5.71875 15.4814C5.69052 15.5174 5.68082 15.5649 5.69141 15.6094L5.75 15.8555C5.89486 16.4656 6.24164 17.0085 6.7334 17.3975C7.22531 17.7864 7.83356 17.9998 8.46094 18L8.69532 17.9893C9.23893 17.9431 9.75901 17.7379 10.1895 17.3975C10.6811 17.0085 11.0271 16.4653 11.1719 15.8555L11.2305 15.6094C11.2411 15.5649 11.2314 15.5174 11.2031 15.4814C11.1747 15.4454 11.1309 15.4238 11.085 15.4238H5.83692ZM8.46094 0.423828C6.72712 0.42386 5.06388 1.11289 3.8379 2.33887C2.61192 3.56487 1.92286 5.22807 1.92286 6.96191C1.92286 10.0649 1.25825 12.6963 0.625005 13.958L0.499028 14.1924C0.452414 14.2732 0.425786 14.3666 0.425786 14.4619C0.425786 14.5549 0.451127 14.6439 0.494145 14.7217L0.498051 14.7275C0.543507 14.8092 0.609291 14.8779 0.690434 14.9258C0.772939 14.9743 0.866733 14.9985 0.960942 14.998H15.9619C16.0562 14.9985 16.1499 14.9743 16.2324 14.9258C16.3082 14.8811 16.3678 14.8178 16.4121 14.7451C16.4177 14.7378 16.4236 14.7309 16.4277 14.7227C16.471 14.6446 16.4971 14.5551 16.4971 14.4619C16.4971 14.3677 16.4717 14.2748 16.4248 14.1934C16.4242 14.1923 16.4235 14.1914 16.4229 14.1904C15.755 13.0373 14.999 10.2684 14.999 6.96191C14.999 5.22805 14.31 3.56488 13.084 2.33887C11.858 1.1129 10.1948 0.423828 8.46094 0.423828ZM0.483403 14.6904C0.483849 14.6922 0.484271 14.6957 0.485356 14.6992C0.487018 14.7046 0.489487 14.7123 0.494145 14.7217C0.488753 14.7113 0.486041 14.7027 0.48438 14.6973C0.483413 14.6941 0.482783 14.6909 0.482426 14.6895L0.483403 14.6904Z" fill="#3A3A3A"/>
</svg>
