<svg width="11" height="14" viewBox="0 0 11 14" fill="none" xmlns="http://www.w3.org/2000/svg">
<path d="M5.5 11.8461L2.0735 13.3201C1.57972 13.5327 1.11069 13.4918 0.666417 13.1972C0.222139 12.9033 0 12.4923 0 11.9643V1.48133C0 1.05906 0.141472 0.70675 0.424417 0.424416C0.707361 0.142083 1.05967 0.000611111 1.48133 0H9.51958C9.94125 0 10.2936 0.141472 10.5765 0.424416C10.8594 0.707361 11.0006 1.05967 11 1.48133V11.9643C11 12.4923 10.7779 12.9033 10.3336 13.1972C9.88931 13.4918 9.42028 13.5327 8.9265 13.3201L5.5 11.8461ZM5.5 10.8167L9.29042 12.452C9.47803 12.5345 9.65708 12.5171 9.82758 12.3997C9.99808 12.2818 10.0833 12.1229 10.0833 11.9231V1.48225C10.0833 1.34108 10.0247 1.21153 9.90733 1.09358C9.79 0.975639 9.66045 0.916667 9.51867 0.916667H1.48133C1.34017 0.916667 1.21061 0.975333 1.09267 1.09267C0.974722 1.21 0.916056 1.33956 0.916667 1.48133V11.924C0.916667 12.1238 1.00192 12.2824 1.17242 12.3997C1.34292 12.5171 1.52197 12.5345 1.70958 12.452L5.5 10.8167ZM5.5 0.916667H0.916667H10.0833H5.5Z" fill="#3A3A3A"/>
</svg>
