<svg width="22" height="22" viewBox="0 0 22 22" fill="none" xmlns="http://www.w3.org/2000/svg">
<path d="M7.10467 2.2915C7.10467 2.10917 7.03223 1.9343 6.9033 1.80537C6.77437 1.67644 6.5995 1.604 6.41717 1.604C6.23483 1.604 6.05996 1.67644 5.93103 1.80537C5.8021 1.9343 5.72967 2.10917 5.72967 2.2915V3.73984C4.40967 3.84525 3.54433 4.10375 2.90817 4.74084C2.27108 5.377 2.01258 6.24325 1.90625 7.56234H20.0947C19.9884 6.24234 19.7299 5.377 19.0928 4.74084C18.4567 4.10375 17.5904 3.84525 16.2713 3.73892V2.2915C16.2713 2.10917 16.1989 1.9343 16.07 1.80537C15.941 1.67644 15.7662 1.604 15.5838 1.604C15.4015 1.604 15.2266 1.67644 15.0977 1.80537C14.9688 1.9343 14.8963 2.10917 14.8963 2.2915V3.67842C14.2867 3.6665 13.6029 3.6665 12.8338 3.6665H9.16717C8.39808 3.6665 7.71425 3.6665 7.10467 3.67842V2.2915Z" fill="#778437"/>
<path fill-rule="evenodd" clip-rule="evenodd" d="M1.83398 11C1.83398 10.2309 1.83398 9.54708 1.8459 8.9375H20.1554C20.1673 9.54708 20.1673 10.2309 20.1673 11V12.8333C20.1673 16.2901 20.1673 18.0189 19.093 19.0923C18.0187 20.1657 16.2907 20.1667 12.834 20.1667H9.16732C5.71057 20.1667 3.98173 20.1667 2.90832 19.0923C1.8349 18.018 1.83398 16.2901 1.83398 12.8333V11ZM15.584 12.8333C15.8271 12.8333 16.0603 12.7368 16.2322 12.5648C16.4041 12.3929 16.5007 12.1598 16.5007 11.9167C16.5007 11.6736 16.4041 11.4404 16.2322 11.2685C16.0603 11.0966 15.8271 11 15.584 11C15.3409 11 15.1077 11.0966 14.9358 11.2685C14.7639 11.4404 14.6673 11.6736 14.6673 11.9167C14.6673 12.1598 14.7639 12.3929 14.9358 12.5648C15.1077 12.7368 15.3409 12.8333 15.584 12.8333ZM15.584 16.5C15.8271 16.5 16.0603 16.4034 16.2322 16.2315C16.4041 16.0596 16.5007 15.8264 16.5007 15.5833C16.5007 15.3402 16.4041 15.1071 16.2322 14.9352C16.0603 14.7632 15.8271 14.6667 15.584 14.6667C15.3409 14.6667 15.1077 14.7632 14.9358 14.9352C14.7639 15.1071 14.6673 15.3402 14.6673 15.5833C14.6673 15.8264 14.7639 16.0596 14.9358 16.2315C15.1077 16.4034 15.3409 16.5 15.584 16.5ZM11.9173 11.9167C11.9173 12.1598 11.8207 12.3929 11.6488 12.5648C11.4769 12.7368 11.2438 12.8333 11.0007 12.8333C10.7575 12.8333 10.5244 12.7368 10.3525 12.5648C10.1806 12.3929 10.084 12.1598 10.084 11.9167C10.084 11.6736 10.1806 11.4404 10.3525 11.2685C10.5244 11.0966 10.7575 11 11.0007 11C11.2438 11 11.4769 11.0966 11.6488 11.2685C11.8207 11.4404 11.9173 11.6736 11.9173 11.9167ZM11.9173 15.5833C11.9173 15.8264 11.8207 16.0596 11.6488 16.2315C11.4769 16.4034 11.2438 16.5 11.0007 16.5C10.7575 16.5 10.5244 16.4034 10.3525 16.2315C10.1806 16.0596 10.084 15.8264 10.084 15.5833C10.084 15.3402 10.1806 15.1071 10.3525 14.9352C10.5244 14.7632 10.7575 14.6667 11.0007 14.6667C11.2438 14.6667 11.4769 14.7632 11.6488 14.9352C11.8207 15.1071 11.9173 15.3402 11.9173 15.5833ZM6.41732 12.8333C6.66043 12.8333 6.89359 12.7368 7.0655 12.5648C7.23741 12.3929 7.33398 12.1598 7.33398 11.9167C7.33398 11.6736 7.23741 11.4404 7.0655 11.2685C6.89359 11.0966 6.66043 11 6.41732 11C6.1742 11 5.94105 11.0966 5.76914 11.2685C5.59723 11.4404 5.50065 11.6736 5.50065 11.9167C5.50065 12.1598 5.59723 12.3929 5.76914 12.5648C5.94105 12.7368 6.1742 12.8333 6.41732 12.8333ZM6.41732 16.5C6.66043 16.5 6.89359 16.4034 7.0655 16.2315C7.23741 16.0596 7.33398 15.8264 7.33398 15.5833C7.33398 15.3402 7.23741 15.1071 7.0655 14.9352C6.89359 14.7632 6.66043 14.6667 6.41732 14.6667C6.1742 14.6667 5.94105 14.7632 5.76914 14.9352C5.59723 15.1071 5.50065 15.3402 5.50065 15.5833C5.50065 15.8264 5.59723 16.0596 5.76914 16.2315C5.94105 16.4034 6.1742 16.5 6.41732 16.5Z" fill="#778437"/>
</svg>
