<svg width="22" height="22" viewBox="0 0 22 22" fill="none" xmlns="http://www.w3.org/2000/svg">
<path d="M11.001 1.62109C16.1802 1.62116 20.3799 5.82073 20.3799 11C20.3798 16.1792 16.1802 20.3788 11.001 20.3789C9.46472 20.3811 7.9515 20.0037 6.5957 19.2812L6.57715 19.2715L6.55762 19.2773L2.81055 20.3438C2.65093 20.3891 2.48189 20.3903 2.32129 20.3486C2.16063 20.3069 2.01386 20.2228 1.89648 20.1055C1.77928 19.9882 1.69509 19.8421 1.65332 19.6816C1.61158 19.5211 1.61389 19.352 1.65918 19.1924L2.72461 15.4443L2.72949 15.4248L2.7207 15.4072C1.99763 14.051 1.61988 12.537 1.62207 11C1.62207 5.82069 5.82166 1.62109 11.001 1.62109ZM11.001 2.7002C6.417 2.7002 2.70117 6.41603 2.70117 11C2.7012 12.4109 3.05311 13.7384 3.67285 14.9004C3.8103 15.158 3.84236 15.4594 3.7627 15.7402L2.79297 19.1475L2.76855 19.2334L2.85449 19.209L6.26367 18.2402C6.54439 18.1605 6.84496 18.1929 7.10254 18.3301C8.30226 18.9692 9.64165 19.3021 11.001 19.2998C15.5848 19.2997 19.3007 15.5839 19.3008 11C19.3008 6.41607 15.5849 2.70027 11.001 2.7002ZM8.05469 12.2285H11.5898C11.7329 12.2285 11.8705 12.2856 11.9717 12.3867C12.0726 12.4878 12.1298 12.6247 12.1299 12.7676C12.1299 12.9106 12.0728 13.0483 11.9717 13.1494C11.8706 13.2505 11.7328 13.3066 11.5898 13.3066H8.05469C7.91169 13.3066 7.77398 13.2505 7.67285 13.1494C7.57172 13.0483 7.51465 12.9106 7.51465 12.7676C7.51469 12.6247 7.57193 12.4878 7.67285 12.3867C7.77399 12.2856 7.91166 12.2285 8.05469 12.2285ZM8.05469 8.69238H13.9473C14.0902 8.69238 14.227 8.74963 14.3281 8.85059C14.4293 8.95172 14.4863 9.08939 14.4863 9.23242C14.4862 9.3753 14.4292 9.51224 14.3281 9.61328C14.227 9.71428 14.0902 9.77148 13.9473 9.77148H8.05469C7.91166 9.77148 7.77399 9.71442 7.67285 9.61328C7.5719 9.51226 7.51476 9.37523 7.51465 9.23242C7.51465 9.08943 7.57176 8.95171 7.67285 8.85059C7.77399 8.74945 7.91166 8.69238 8.05469 8.69238Z" fill="#3A3A3A" stroke="white" stroke-width="0.1"/>
</svg>
