<svg width="27" height="27" viewBox="0 0 27 27" fill="none" xmlns="http://www.w3.org/2000/svg">
<path d="M3.375 13.5C3.375 14.8296 3.63689 16.1462 4.14572 17.3747C4.65455 18.6031 5.40035 19.7193 6.34054 20.6595C7.28074 21.5996 8.39691 22.3455 9.62533 22.8543C10.8538 23.3631 12.1704 23.625 13.5 23.625C14.8296 23.625 16.1462 23.3631 17.3747 22.8543C18.6031 22.3455 19.7193 21.5996 20.6595 20.6595C21.5996 19.7193 22.3455 18.6031 22.8543 17.3747C23.3631 16.1462 23.625 14.8296 23.625 13.5C23.625 12.1704 23.3631 10.8538 22.8543 9.62533C22.3455 8.39691 21.5996 7.28074 20.6595 6.34054C19.7193 5.40035 18.6031 4.65455 17.3747 4.14572C16.1462 3.63689 14.8296 3.375 13.5 3.375C12.1704 3.375 10.8538 3.63689 9.62533 4.14572C8.39691 4.65455 7.28074 5.40035 6.34054 6.34054C5.40035 7.28074 4.65455 8.39691 4.14572 9.62533C3.63689 10.8538 3.375 12.1704 3.375 13.5Z" stroke="#454B27" stroke-width="1.5" stroke-linecap="round" stroke-linejoin="round"/>
<path d="M16.65 10.125C16.4462 9.77148 16.1501 9.48004 15.7934 9.28187C15.4367 9.0837 15.0328 8.98627 14.625 9H12.375C11.7783 9 11.206 9.23705 10.784 9.65901C10.3621 10.081 10.125 10.6533 10.125 11.25C10.125 11.8467 10.3621 12.419 10.784 12.841C11.206 13.2629 11.7783 13.5 12.375 13.5H14.625C15.2217 13.5 15.794 13.7371 16.216 14.159C16.6379 14.581 16.875 15.1533 16.875 15.75C16.875 16.3467 16.6379 16.919 16.216 17.341C15.794 17.7629 15.2217 18 14.625 18H12.375C11.9672 18.0137 11.5633 17.9163 11.2066 17.7181C10.8499 17.52 10.5538 17.2285 10.35 16.875M13.5 7.875V19.125" stroke="#454B27" stroke-width="1.5" stroke-linecap="round" stroke-linejoin="round"/>
</svg>
