<svg width="23" height="23" viewBox="0 0 23 23" fill="none" xmlns="http://www.w3.org/2000/svg">
<path d="M10.7812 7.52002C9.88425 7.76535 9.34375 8.45439 9.34375 9.10414C9.34375 9.75389 9.88425 10.4429 10.7812 10.6873V7.52002ZM12.2187 12.3126V15.479C13.1157 15.2346 13.6562 14.5456 13.6562 13.8958C13.6562 13.2461 13.1157 12.557 12.2187 12.3126Z" fill="#FFF27B"/>
<path fill-rule="evenodd" clip-rule="evenodd" d="M21.0827 11.4998C21.0827 16.7927 16.7922 21.0832 11.4993 21.0832C6.20647 21.0832 1.91602 16.7927 1.91602 11.4998C1.91602 6.20696 6.20647 1.9165 11.4993 1.9165C16.7922 1.9165 21.0827 6.20696 21.0827 11.4998ZM11.4993 5.03109C11.69 5.03109 11.8728 5.10681 12.0076 5.2416C12.1424 5.3764 12.2181 5.55921 12.2181 5.74984V6.05363C13.7802 6.33346 15.0931 7.50742 15.0931 9.104C15.0931 9.29463 15.0174 9.47744 14.8826 9.61224C14.7478 9.74703 14.565 9.82275 14.3743 9.82275C14.1837 9.82275 14.0009 9.74703 13.8661 9.61224C13.7313 9.47744 13.6556 9.29463 13.6556 9.104C13.6556 8.45425 13.1151 7.76521 12.2181 7.51988V10.8453C13.7802 11.1251 15.0931 12.2991 15.0931 13.8957C15.0931 15.4923 13.7802 16.6662 12.2181 16.946V17.2498C12.2181 17.4405 12.1424 17.6233 12.0076 17.7581C11.8728 17.8929 11.69 17.9686 11.4993 17.9686C11.3087 17.9686 11.1259 17.8929 10.9911 17.7581C10.8563 17.6233 10.7806 17.4405 10.7806 17.2498V16.946C9.21852 16.6662 7.9056 15.4923 7.9056 13.8957C7.9056 13.705 7.98132 13.5222 8.11612 13.3874C8.25091 13.2526 8.43372 13.1769 8.62435 13.1769C8.81497 13.1769 8.99779 13.2526 9.13258 13.3874C9.26737 13.5222 9.3431 13.705 9.3431 13.8957C9.3431 14.5454 9.8836 15.2345 10.7806 15.4788V12.1544C9.21852 11.8745 7.9056 10.7006 7.9056 9.104C7.9056 7.50742 9.21852 6.33346 10.7806 6.05363V5.74984C10.7806 5.55921 10.8563 5.3764 10.9911 5.2416C11.1259 5.10681 11.3087 5.03109 11.4993 5.03109Z" fill="#FFF27B"/>
</svg>
