<svg viewBox="0 0 22 22" fill="none" xmlns="http://www.w3.org/2000/svg">
<g transform="translate(3.7 1.2)"><path d="M14.6377 13.6582L9.19629 19.0996H7.4834V17.3867L12.9248 11.9453L14.6377 13.6582ZM1.83301 0.150391H9.10449L14.5166 5.5625V7.36328L12.9834 8.89648V6.2666H8.40039V1.68359H1.68359V16.6504H5.34961V18.1836H1.83301C1.38668 18.1835 0.958188 18.006 0.642578 17.6904C0.326993 17.3748 0.150391 16.9464 0.150391 16.5V1.83301C0.150477 1.38668 0.326969 0.958188 0.642578 0.642578C0.958188 0.326969 1.38668 0.150477 1.83301 0.150391ZM8.09961 12.9834V13.7793L7.36328 14.5166H3.81641V12.9834H8.09961ZM14.8496 10.2334C14.8496 10.2334 14.8535 10.2331 14.8604 10.2344C14.8674 10.2357 14.8766 10.2386 14.8877 10.2422C14.9103 10.2494 14.9373 10.2602 14.9658 10.2744C15.0253 10.3041 15.0794 10.3421 15.1104 10.373L16.3027 11.5645C16.3598 11.6217 16.3955 11.7176 16.3955 11.8252C16.3955 11.9328 16.3598 12.0288 16.3027 12.0859L15.4912 12.8955L13.7783 11.1826L14.5898 10.373C14.6798 10.2831 14.7325 10.2335 14.8496 10.2334ZM10.8496 9.31641V10.8496H3.81641V9.31641H10.8496Z" fill="#FFF27B" stroke="#778437" stroke-width="0.3"/>
</g></svg>
