<svg width="16" height="19" viewBox="0 0 16 19" fill="none" xmlns="http://www.w3.org/2000/svg">
<g transform="translate(2.2 1)"><path d="M14.126 13.3584L8.83398 18.6504H7.33398V17.1484L12.625 11.8574L14.126 13.3584ZM8.74219 0L14.0664 5.32422V7.00098L12.834 8.2334V6.11719C12.834 5.9515 12.6989 5.81641 12.5332 5.81641H8.25V1.5332C8.24982 1.36767 8.11577 1.2334 7.9502 1.2334H1.5332C1.36778 1.23357 1.23357 1.36778 1.2334 1.5332V16.2002C1.2334 16.3658 1.36767 16.4998 1.5332 16.5H4.90039V17.7334H1.5332C1.12666 17.7333 0.736698 17.5717 0.449219 17.2842C0.161765 16.9966 0 16.6068 0 16.2002V1.5332C8.61833e-05 1.12666 0.16174 0.736698 0.449219 0.449219C0.736698 0.16174 1.12666 8.60887e-05 1.5332 0H8.74219ZM7.65039 12.834V13.417L7.00098 14.0664H3.66699V12.834H7.65039ZM14.542 10.085C14.556 10.0894 14.5764 10.0978 14.5996 10.1094C14.6496 10.1344 14.689 10.1626 14.7051 10.1787L15.8965 11.3711C15.9191 11.3939 15.9463 11.4477 15.9463 11.5254C15.9462 11.6032 15.9191 11.657 15.8965 11.6797L15.1914 12.3838L13.6904 10.8828L14.3955 10.1787C14.4452 10.129 14.4667 10.11 14.4873 10.0977C14.4976 10.0915 14.5112 10.0853 14.5391 10.084L14.542 10.085ZM10.4004 9.16699V10.4004H3.66699V9.16699H10.4004Z" fill="#D9D9D9"/></g>
</svg>
