<svg width="9" height="16" viewBox="0 0 9 16" fill="none" xmlns="http://www.w3.org/2000/svg">
<path d="M8.99891 10.6949C8.99891 12.5249 7.49891 13.6949 5.45891 13.9049V15.5699H3.85391V13.8749C1.99391 13.6049 0.613906 12.5399 -0.00109375 10.8599L1.22891 10.2749C1.72391 11.5949 2.75891 12.3899 4.07891 12.5999V8.20486L3.79391 8.12986C2.23391 7.67986 0.643906 6.83986 0.643906 4.85986C0.643906 3.08986 1.99391 1.91986 3.85391 1.67986V-0.000137627H5.45891V1.70986C7.18391 1.97986 8.39891 3.10486 8.92391 4.48486L7.70891 5.08486C7.24391 3.97486 6.40391 3.19486 5.23391 2.98486V7.21486L5.83391 7.37986C7.40891 7.82986 8.99891 8.66986 8.99891 10.6949ZM2.05391 4.85986C2.05391 6.05986 2.98391 6.53986 4.07891 6.86986V2.95486C2.84891 3.10486 2.05391 3.77986 2.05391 4.85986ZM5.23391 8.53486V12.6299C6.64391 12.5099 7.58891 11.8349 7.58891 10.6949C7.58891 9.47986 6.73391 8.96986 5.54891 8.62486L5.23391 8.53486Z" fill="black"/>
</svg>
