<svg width="18" height="18" viewBox="0 0 18 18" fill="none" xmlns="http://www.w3.org/2000/svg">
<g clip-path="url(#clip0_4420_5892)">
<path d="M14 15H3V4H9.61L10.61 3H3C2.73478 3 2.48043 3.10536 2.29289 3.29289C2.10536 3.48043 2 3.73478 2 4V15C2 15.2652 2.10536 15.5196 2.29289 15.7071C2.48043 15.8946 2.73478 16 3 16H14C14.2652 16 14.5196 15.8946 14.7071 15.7071C14.8946 15.5196 15 15.2652 15 15V7.5L14 8.5V15Z" fill="black"/>
<path d="M16.7647 2.92009L15.0797 1.23509C15.005 1.16011 14.9161 1.10062 14.8183 1.06002C14.7205 1.01943 14.6156 0.998535 14.5097 0.998535C14.4038 0.998535 14.299 1.01943 14.2012 1.06002C14.1034 1.10062 14.0145 1.16011 13.9397 1.23509L7.08473 8.13009L6.52973 10.5351C6.50609 10.6517 6.50858 10.772 6.53701 10.8875C6.56545 11.0031 6.61913 11.1108 6.6942 11.2031C6.76926 11.2954 6.86384 11.3699 6.97114 11.4212C7.07844 11.4726 7.19578 11.4995 7.31473 11.5001C7.37622 11.5068 7.43825 11.5068 7.49973 11.5001L9.92473 10.9651L16.7647 4.06009C16.8397 3.98531 16.8992 3.89647 16.9398 3.79866C16.9804 3.70085 17.0013 3.59599 17.0013 3.49009C17.0013 3.38419 16.9804 3.27934 16.9398 3.18152C16.8992 3.08371 16.8397 2.99487 16.7647 2.92009ZM9.40473 10.0401L7.57473 10.4451L7.99973 8.63009L13.1597 3.43509L14.5697 4.84509L9.40473 10.0401ZM15.1347 4.28009L13.7247 2.87009L14.4997 2.08009L15.9197 3.50009L15.1347 4.28009Z" fill="black"/>
</g>
<defs>
<clipPath id="clip0_4420_5892">
<rect width="18" height="18" fill="white"/>
</clipPath>
</defs>
</svg>
