<svg width="19" height="19" viewBox="0 0 19 19" fill="none" xmlns="http://www.w3.org/2000/svg">
<g filter="url(#filter0_f_3433_1335)">
<path d="M-0.138672 9.56396C-0.128798 11.0772 0.293777 12.6385 0.933417 13.8989V13.9076C1.39559 14.823 2.02724 15.546 2.74668 16.2624L7.09193 14.6446C6.26983 14.2184 6.14439 13.9573 5.55508 13.4809C4.95286 12.8612 4.50402 12.1499 4.2245 11.3158H4.21324L4.2245 11.3071C4.04061 10.7563 4.02247 10.1716 4.01569 9.56396H-0.138672Z" fill="url(#paint0_radial_3433_1335)"/>
</g>
<g filter="url(#filter1_f_3433_1335)">
<path d="M9.50626 -0.0688477C9.07678 1.47078 9.24099 2.96735 9.50626 3.83812C10.0022 3.8385 10.48 3.89882 10.933 4.019C11.9716 4.29451 12.7061 4.83715 13.1562 5.26636L15.9419 2.48277C14.2917 0.93881 12.3057 -0.0664151 9.50626 -0.0688477Z" fill="url(#paint1_radial_3433_1335)"/>
</g>
<g filter="url(#filter2_f_3433_1335)">
<path d="M9.49843 -0.0810547C7.39179 -0.0811012 5.44687 0.58866 3.85306 1.72058C3.26128 2.14086 2.71821 2.62636 2.23465 3.16624C2.10797 4.37897 3.18296 5.86953 5.31179 5.85719C6.34469 4.63118 7.87231 3.83795 9.57257 3.83795C9.57412 3.83795 9.57563 3.83808 9.57718 3.83809L9.50774 -0.0807773C9.50461 -0.0807793 9.50157 -0.0810547 9.49843 -0.0810547Z" fill="url(#paint2_radial_3433_1335)"/>
</g>
<g filter="url(#filter3_f_3433_1335)">
<path d="M16.4528 10.0026L14.5725 11.3207C14.49 11.8376 14.3046 12.3461 14.0333 12.8098C13.7224 13.341 13.3382 13.7455 12.9443 14.0535C11.7668 14.9742 10.3948 15.1637 9.43966 15.1645C8.45245 16.8802 8.27938 17.7396 9.50909 19.1243C11.0307 19.1232 12.3797 18.8429 13.5696 18.318C14.4298 17.9386 15.1918 17.4437 15.8818 16.8077C16.7935 15.9674 17.5076 14.9279 17.995 13.732C18.4823 12.536 18.7429 11.1837 18.7429 9.71753L16.4528 10.0026Z" fill="url(#paint3_radial_3433_1335)"/>
</g>
<g filter="url(#filter4_f_3433_1335)">
<path d="M9.36914 7.59888V11.5289H18.4158C18.4953 10.9906 18.7585 10.2942 18.7585 9.71759C18.7585 9.04379 18.6922 8.22079 18.5797 7.59888H9.36914Z" fill="#3086FF"/>
</g>
<g filter="url(#filter5_f_3433_1335)">
<path d="M2.27673 3.02734C1.71846 3.65063 1.24153 4.34827 0.863374 5.10276C0.214606 6.3931 -0.140625 7.9618 -0.140625 9.49926C-0.140625 9.52093 -0.138868 9.54213 -0.138726 9.56376C0.148593 10.1259 3.83007 10.0183 4.01563 9.56376C4.0154 9.54255 4.01306 9.52187 4.01306 9.50062C4.01306 8.87002 4.11746 8.40523 4.30777 7.83512C4.54253 7.1319 4.91012 6.48434 5.38016 5.9264C5.48671 5.78759 5.77093 5.48918 5.85385 5.31018C5.88544 5.242 5.79651 5.20373 5.79153 5.17974C5.78597 5.15289 5.66673 5.17448 5.64002 5.15449C5.55521 5.091 5.38725 5.05785 5.28526 5.02839C5.06727 4.9654 4.706 4.82651 4.50534 4.68253C3.87106 4.22742 2.88121 3.68379 2.27673 3.02734Z" fill="url(#paint4_radial_3433_1335)"/>
</g>
<g filter="url(#filter6_f_3433_1335)">
<path d="M4.5203 5.18261C5.99113 6.09176 6.41411 4.72372 7.39201 4.29563L5.69092 0.696045C5.06517 0.964415 4.47396 1.29784 3.92541 1.68742C3.10619 2.26923 2.38276 2.9792 1.78516 3.78716L4.5203 5.18261Z" fill="url(#paint5_radial_3433_1335)"/>
</g>
<g filter="url(#filter7_f_3433_1335)">
<path d="M5.11759 14.3663C3.14319 15.0936 2.83409 15.1197 2.65234 16.3683C2.99965 16.7141 3.3728 17.034 3.76933 17.3241C4.83334 18.1023 6.88003 19.1389 9.49757 19.1389C9.50064 19.1389 9.50358 19.1386 9.50665 19.1386V15.0952C9.50467 15.0952 9.5024 15.0953 9.50042 15.0953C8.52024 15.0953 7.73698 14.8326 6.9339 14.3758C6.73589 14.2631 6.37665 14.5656 6.19404 14.4304C5.94218 14.2439 5.33604 14.5911 5.11759 14.3663Z" fill="url(#paint6_radial_3433_1335)"/>
</g>
<g opacity="0.5" filter="url(#filter8_f_3433_1335)">
<path d="M8.35156 14.9678V19.0685C8.7178 19.1122 9.09895 19.1388 9.49878 19.1388C9.8996 19.1388 10.2874 19.1178 10.6642 19.0792V14.9954C10.2419 15.0691 9.84422 15.0953 9.50163 15.0953C9.10707 15.0953 8.72336 15.0484 8.35156 14.9678Z" fill="url(#paint7_linear_3433_1335)"/>
</g>
<defs>
<filter id="filter0_f_3433_1335" x="-0.608751" y="9.09389" width="8.17063" height="7.63864" filterUnits="userSpaceOnUse" color-interpolation-filters="sRGB">
<feFlood flood-opacity="0" result="BackgroundImageFix"/>
<feBlend mode="normal" in="SourceGraphic" in2="BackgroundImageFix" result="shape"/>
<feGaussianBlur stdDeviation="0.23504" result="effect1_foregroundBlur_3433_1335"/>
</filter>
<filter id="filter1_f_3433_1335" x="8.77211" y="-0.538927" width="7.63938" height="6.27536" filterUnits="userSpaceOnUse" color-interpolation-filters="sRGB">
<feFlood flood-opacity="0" result="BackgroundImageFix"/>
<feBlend mode="normal" in="SourceGraphic" in2="BackgroundImageFix" result="shape"/>
<feGaussianBlur stdDeviation="0.23504" result="effect1_foregroundBlur_3433_1335"/>
</filter>
<filter id="filter2_f_3433_1335" x="1.75453" y="-0.551134" width="8.29367" height="6.87839" filterUnits="userSpaceOnUse" color-interpolation-filters="sRGB">
<feFlood flood-opacity="0" result="BackgroundImageFix"/>
<feBlend mode="normal" in="SourceGraphic" in2="BackgroundImageFix" result="shape"/>
<feGaussianBlur stdDeviation="0.23504" result="effect1_foregroundBlur_3433_1335"/>
</filter>
<filter id="filter3_f_3433_1335" x="8.1725" y="9.24745" width="11.0398" height="10.3469" filterUnits="userSpaceOnUse" color-interpolation-filters="sRGB">
<feFlood flood-opacity="0" result="BackgroundImageFix"/>
<feBlend mode="normal" in="SourceGraphic" in2="BackgroundImageFix" result="shape"/>
<feGaussianBlur stdDeviation="0.23504" result="effect1_foregroundBlur_3433_1335"/>
</filter>
<filter id="filter4_f_3433_1335" x="8.89906" y="7.1288" width="10.3288" height="4.87009" filterUnits="userSpaceOnUse" color-interpolation-filters="sRGB">
<feFlood flood-opacity="0" result="BackgroundImageFix"/>
<feBlend mode="normal" in="SourceGraphic" in2="BackgroundImageFix" result="shape"/>
<feGaussianBlur stdDeviation="0.23504" result="effect1_foregroundBlur_3433_1335"/>
</filter>
<filter id="filter5_f_3433_1335" x="-0.610704" y="2.55726" width="6.94211" height="7.85886" filterUnits="userSpaceOnUse" color-interpolation-filters="sRGB">
<feFlood flood-opacity="0" result="BackgroundImageFix"/>
<feBlend mode="normal" in="SourceGraphic" in2="BackgroundImageFix" result="shape"/>
<feGaussianBlur stdDeviation="0.23504" result="effect1_foregroundBlur_3433_1335"/>
</filter>
<filter id="filter6_f_3433_1335" x="-1.51969" y="-2.60881" width="12.2171" height="11.4019" filterUnits="userSpaceOnUse" color-interpolation-filters="sRGB">
<feFlood flood-opacity="0" result="BackgroundImageFix"/>
<feBlend mode="normal" in="SourceGraphic" in2="BackgroundImageFix" result="shape"/>
<feGaussianBlur stdDeviation="1.65243" result="effect1_foregroundBlur_3433_1335"/>
</filter>
<filter id="filter7_f_3433_1335" x="2.18226" y="13.88" width="7.79367" height="5.72898" filterUnits="userSpaceOnUse" color-interpolation-filters="sRGB">
<feFlood flood-opacity="0" result="BackgroundImageFix"/>
<feBlend mode="normal" in="SourceGraphic" in2="BackgroundImageFix" result="shape"/>
<feGaussianBlur stdDeviation="0.23504" result="effect1_foregroundBlur_3433_1335"/>
</filter>
<filter id="filter8_f_3433_1335" x="7.88148" y="14.4977" width="3.25266" height="5.1113" filterUnits="userSpaceOnUse" color-interpolation-filters="sRGB">
<feFlood flood-opacity="0" result="BackgroundImageFix"/>
<feBlend mode="normal" in="SourceGraphic" in2="BackgroundImageFix" result="shape"/>
<feGaussianBlur stdDeviation="0.23504" result="effect1_foregroundBlur_3433_1335"/>
</filter>
<radialGradient id="paint0_radial_3433_1335" cx="0" cy="0" r="1" gradientTransform="matrix(-0.386925 -9.46193 13.9115 -0.567802 7.00494 16.1198)" gradientUnits="userSpaceOnUse">
<stop offset="0.141612" stop-color="#1ABD4D"/>
<stop offset="0.247515" stop-color="#6EC30D"/>
<stop offset="0.311547" stop-color="#8AC502"/>
<stop offset="0.366013" stop-color="#A2C600"/>
<stop offset="0.445673" stop-color="#C8C903"/>
<stop offset="0.540305" stop-color="#EBCB03"/>
<stop offset="0.615636" stop-color="#F7CD07"/>
<stop offset="0.699345" stop-color="#FDCD04"/>
<stop offset="0.771242" stop-color="#FDCE05"/>
<stop offset="0.860566" stop-color="#FFCE0A"/>
</radialGradient>
<radialGradient id="paint1_radial_3433_1335" cx="0" cy="0" r="1" gradientTransform="matrix(6.57105 -1.61149e-05 -9.23588e-06 8.47817 15.6813 5.06495)" gradientUnits="userSpaceOnUse">
<stop offset="0.408458" stop-color="#FB4E5A"/>
<stop offset="1" stop-color="#FF4540"/>
</radialGradient>
<radialGradient id="paint2_radial_3433_1335" cx="0" cy="0" r="1" gradientTransform="matrix(-9.20652 5.09431 6.91947 12.4814 12.0943 -1.3083)" gradientUnits="userSpaceOnUse">
<stop offset="0.231273" stop-color="#FF4541"/>
<stop offset="0.311547" stop-color="#FF4540"/>
<stop offset="0.457516" stop-color="#FF4640"/>
<stop offset="0.540305" stop-color="#FF473F"/>
<stop offset="0.699346" stop-color="#FF5138"/>
<stop offset="0.771242" stop-color="#FF5B33"/>
<stop offset="0.860566" stop-color="#FF6C29"/>
<stop offset="1" stop-color="#FF8C18"/>
</radialGradient>
<radialGradient id="paint3_radial_3433_1335" cx="0" cy="0" r="1" gradientTransform="matrix(-16.6963 -21.7746 -8.04512 6.1572 9.64597 17.8946)" gradientUnits="userSpaceOnUse">
<stop offset="0.131546" stop-color="#0CBA65"/>
<stop offset="0.209784" stop-color="#0BB86D"/>
<stop offset="0.297297" stop-color="#09B479"/>
<stop offset="0.396257" stop-color="#08AD93"/>
<stop offset="0.477124" stop-color="#0AA6A9"/>
<stop offset="0.568425" stop-color="#0D9CC6"/>
<stop offset="0.667385" stop-color="#1893DD"/>
<stop offset="0.768727" stop-color="#258BF1"/>
<stop offset="0.858506" stop-color="#3086FF"/>
</radialGradient>
<radialGradient id="paint4_radial_3433_1335" cx="0" cy="0" r="1" gradientTransform="matrix(-1.18156 10.1746 14.0815 1.63217 8.69076 1.71328)" gradientUnits="userSpaceOnUse">
<stop offset="0.366013" stop-color="#FF4E3A"/>
<stop offset="0.457516" stop-color="#FF8A1B"/>
<stop offset="0.540305" stop-color="#FFA312"/>
<stop offset="0.615636" stop-color="#FFB60C"/>
<stop offset="0.771242" stop-color="#FFCD0A"/>
<stop offset="0.860566" stop-color="#FECF0A"/>
<stop offset="0.915033" stop-color="#FECF08"/>
<stop offset="1" stop-color="#FDCD01"/>
</radialGradient>
<radialGradient id="paint5_radial_3433_1335" cx="0" cy="0" r="1" gradientTransform="matrix(-3.41531 3.7737 -10.6539 -9.62397 7.03051 1.60793)" gradientUnits="userSpaceOnUse">
<stop offset="0.315904" stop-color="#FF4C3C"/>
<stop offset="0.603818" stop-color="#FF692C"/>
<stop offset="0.726837" stop-color="#FF7825"/>
<stop offset="0.884534" stop-color="#FF8D1B"/>
<stop offset="1" stop-color="#FF9F13"/>
</radialGradient>
<radialGradient id="paint6_radial_3433_1335" cx="0" cy="0" r="1" gradientTransform="matrix(-9.20652 -5.09431 6.91947 -12.4814 12.0932 20.3084)" gradientUnits="userSpaceOnUse">
<stop offset="0.231273" stop-color="#0FBC5F"/>
<stop offset="0.311547" stop-color="#0FBC5F"/>
<stop offset="0.366013" stop-color="#0FBC5E"/>
<stop offset="0.457516" stop-color="#0FBC5D"/>
<stop offset="0.540305" stop-color="#12BC58"/>
<stop offset="0.699346" stop-color="#28BF3C"/>
<stop offset="0.771242" stop-color="#38C02B"/>
<stop offset="0.860566" stop-color="#52C218"/>
<stop offset="0.915033" stop-color="#67C30F"/>
<stop offset="1" stop-color="#86C504"/>
</radialGradient>
<linearGradient id="paint7_linear_3433_1335" x1="8.35156" y1="17.0533" x2="10.6642" y2="17.0533" gradientUnits="userSpaceOnUse">
<stop stop-color="#0FBC5C"/>
<stop offset="1" stop-color="#0CBA65"/>
</linearGradient>
</defs>
</svg>
