<svg width="24" height="24" viewBox="0 0 24 24" fill="none" xmlns="http://www.w3.org/2000/svg">
<path d="M16.6875 3.8252C18.2086 3.82693 19.6666 4.4322 20.7422 5.50781C21.8178 6.58343 22.4231 8.04136 22.4248 9.5625C22.4248 12.8087 20.0154 15.7579 17.5332 17.9316C15.0555 20.1014 12.5258 21.481 12.3203 21.5898H12.3193C12.2211 21.6427 12.1115 21.6709 12 21.6709C11.8885 21.6709 11.7789 21.6427 11.6807 21.5898H11.6797C11.4742 21.481 8.94446 20.1014 6.4668 17.9316C3.98461 15.7579 1.5752 12.8087 1.5752 9.5625C1.57693 8.04135 2.1822 6.58343 3.25781 5.50781C4.33343 4.4322 5.79135 3.82693 7.3125 3.8252C9.22652 3.8252 10.899 4.64814 11.9404 6.03516L12 6.11426L12.0596 6.03516C13.036 4.73471 14.5672 3.93031 16.332 3.83496L16.6875 3.8252ZM16.6875 5.1748C14.8369 5.1748 13.2761 6.15903 12.624 7.75293C12.5732 7.87652 12.4869 7.98218 12.376 8.05664C12.2648 8.13116 12.1338 8.1709 12 8.1709C11.8662 8.1709 11.7352 8.13116 11.624 8.05664C11.5131 7.98218 11.4268 7.87652 11.376 7.75293C10.7647 6.26146 9.35486 5.30086 7.65625 5.18652L7.3125 5.1748C6.14935 5.17632 5.03438 5.63944 4.21191 6.46191C3.38944 7.28438 2.92632 8.39935 2.9248 9.5625L2.93066 9.80078C3.04056 12.2629 4.83226 14.5852 6.80664 16.418C8.84829 18.3131 11.1038 19.7021 11.9619 20.2021L12 20.2246L12.0381 20.2021C12.8952 19.7017 15.1505 18.311 17.1924 16.415C19.2306 14.5224 21.0752 12.1092 21.0752 9.5625L21.0693 9.34473C21.0142 8.26088 20.5591 7.23293 19.7881 6.46191C18.9656 5.63944 17.8506 5.17632 16.6875 5.1748Z" fill="#3A3A3A" stroke="white" stroke-width="0.15"/>
</svg>
