<svg width="23" height="23" viewBox="0 0 23 23" fill="none" xmlns="http://www.w3.org/2000/svg">
<path d="M8.4375 19.6875V14.0625C8.4375 13.5652 8.63504 13.0883 8.98668 12.7367C9.33831 12.385 9.81522 12.1875 10.3125 12.1875H12.1875C12.7922 12.1875 13.3294 12.4734 13.6725 12.9187" stroke="#FFF27B" stroke-width="1.3" stroke-linecap="round" stroke-linejoin="round"/>
<path d="M18.7492 10.3125L11.2492 2.8125L2.54297 11.25H4.68669V17.8125C4.68669 18.3098 4.88424 18.7867 5.23587 19.1383C5.5875 19.49 6.06441 19.6875 6.56169 19.6875H10.3117M17.2679 14.6344C17.4508 14.4515 17.6678 14.3065 17.9067 14.2076C18.1456 14.1086 18.4016 14.0577 18.6601 14.0577C18.9187 14.0577 19.1747 14.1086 19.4136 14.2076C19.6525 14.3065 19.8695 14.4515 20.0523 14.6344C20.2351 14.8172 20.3802 15.0342 20.4791 15.2731C20.5781 15.512 20.629 15.768 20.629 16.0266C20.629 16.2851 20.5781 16.5411 20.4791 16.78C20.3802 17.0189 20.2351 17.2359 20.0523 17.4187L16.8742 20.625H14.0617V19.2187V17.8125L17.2679 14.6344Z" stroke="#FFF27B" stroke-width="1.3" stroke-linecap="round" stroke-linejoin="round"/>
</svg>
