<svg width="40" height="46" viewBox="0 0 40 46" fill="none" xmlns="http://www.w3.org/2000/svg">
<circle cx="20" cy="20" r="20" fill="#778437"/>
<path d="M28.25 19.3124V27.5624C28.25 27.7447 28.1776 27.9196 28.0486 28.0485C27.9197 28.1774 27.7448 28.2499 27.5625 28.2499H22.75C22.5677 28.2499 22.3928 28.1774 22.2639 28.0485C22.1349 27.9196 22.0625 27.7447 22.0625 27.5624V23.0936C22.0625 23.0024 22.0263 22.915 21.9618 22.8505C21.8974 22.7861 21.8099 22.7499 21.7188 22.7499H18.2812C18.1901 22.7499 18.1026 22.7861 18.0382 22.8505C17.9737 22.915 17.9375 23.0024 17.9375 23.0936V27.5624C17.9375 27.7447 17.8651 27.9196 17.7361 28.0485C17.6072 28.1774 17.4323 28.2499 17.25 28.2499H12.4375C12.2552 28.2499 12.0803 28.1774 11.9514 28.0485C11.8224 27.9196 11.75 27.7447 11.75 27.5624V19.3124C11.7502 18.9477 11.8951 18.5981 12.153 18.3404L19.028 11.4654C19.2859 11.2077 19.6355 11.063 20 11.063C20.3645 11.063 20.7141 11.2077 20.972 11.4654L27.847 18.3404C28.1049 18.5981 28.2498 18.9477 28.25 19.3124Z" fill="white"/>
<path d="M21.6271 43.7238C20.8294 44.8397 19.1706 44.8397 18.3729 43.7238L11.0027 33.413C10.0565 32.0894 11.0027 30.25 12.6297 30.25H27.3703C28.9973 30.25 29.9435 32.0894 28.9973 33.413L21.6271 43.7238Z" fill="#778437"/>
</svg>
