<svg width="16" height="16" viewBox="0 0 16 16" fill="none" xmlns="http://www.w3.org/2000/svg">
<path d="M4.08802 14.0002C3.30268 14.0002 2.66602 13.3469 2.66602 12.5402V6.67218C2.66602 6.22885 2.86268 5.80885 3.19935 5.53218L7.11068 2.32018C7.36059 2.11324 7.67488 2 7.99935 2C8.32382 2 8.63811 2.11324 8.88802 2.32018L12.7987 5.53218C13.136 5.80885 13.3327 6.22885 13.3327 6.67218V12.5402C13.3327 13.3469 12.696 14.0002 11.9107 14.0002H4.08802Z" stroke="#3A3A3A" stroke-linecap="round" stroke-linejoin="round"/>
<path d="M6.33203 14V10.3333C6.33203 9.97971 6.47251 9.64057 6.72256 9.39052C6.9726 9.14048 7.31174 9 7.66536 9H8.33203C8.68565 9 9.02479 9.14048 9.27484 9.39052C9.52489 9.64057 9.66536 9.97971 9.66536 10.3333V14" stroke="#3A3A3A" stroke-linecap="round" stroke-linejoin="round"/>
</svg>
