<svg width="25" height="25" viewBox="0 0 25 25" fill="none" xmlns="http://www.w3.org/2000/svg">
<path d="M4.16602 10.5658C4.16602 5.88141 7.89727 2.0835 12.4993 2.0835C17.1014 2.0835 20.8327 5.88141 20.8327 10.5658C20.8327 15.2137 18.1733 20.6387 14.0233 22.5772C13.5463 22.8006 13.026 22.9164 12.4993 22.9164C11.9727 22.9164 11.4524 22.8006 10.9754 22.5772C6.82539 20.6377 4.16602 15.2147 4.16602 10.5668V10.5658Z" stroke="#454B27" stroke-width="1.5"/>
<path d="M12.5 13.542C14.2259 13.542 15.625 12.1429 15.625 10.417C15.625 8.6911 14.2259 7.29199 12.5 7.29199C10.7741 7.29199 9.375 8.6911 9.375 10.417C9.375 12.1429 10.7741 13.542 12.5 13.542Z" stroke="#454B27" stroke-width="1.5"/>
</svg>
