<svg width="18" height="18" viewBox="0 0 18 18" fill="none" xmlns="http://www.w3.org/2000/svg">
<path d="M11.2671 2.87119C11.2508 2.93236 11.2466 2.99615 11.2549 3.05892C11.2631 3.1217 11.2837 3.18223 11.3154 3.23706C11.347 3.29188 11.3892 3.33994 11.4394 3.37848C11.4897 3.41701 11.547 3.44528 11.6082 3.46166C11.6693 3.47803 11.7331 3.4822 11.7959 3.47393C11.8587 3.46565 11.9192 3.4451 11.974 3.41343C12.0289 3.38176 12.0769 3.3396 12.1155 3.28936C12.154 3.23912 12.1823 3.18178 12.1986 3.12062L12.6146 1.56812C12.6309 1.50692 12.6351 1.44308 12.6268 1.38027C12.6185 1.31746 12.5979 1.25689 12.5662 1.20203C12.5345 1.14717 12.4923 1.09909 12.4421 1.06054C12.3918 1.02199 12.3344 0.993713 12.2732 0.977335C12.212 0.960957 12.1482 0.956795 12.0854 0.965086C12.0225 0.973378 11.962 0.99396 11.9071 1.02566C11.7963 1.08967 11.7155 1.19508 11.6824 1.31869L11.2671 2.87119ZM15.9304 2.07019C16.0207 2.16059 16.0714 2.28314 16.0714 2.41091C16.0714 2.53867 16.0207 2.66122 15.9304 2.75162L14.3233 4.35876C14.2788 4.40483 14.2256 4.44159 14.1668 4.46688C14.108 4.49218 14.0448 4.50551 13.9807 4.5061C13.9167 4.50668 13.8532 4.49451 13.794 4.4703C13.7347 4.44608 13.6808 4.41031 13.6356 4.36506C13.5903 4.31981 13.5544 4.266 13.5302 4.20676C13.5059 4.14751 13.4937 4.08403 13.4942 4.02001C13.4947 3.956 13.508 3.89272 13.5332 3.83389C13.5585 3.77505 13.5952 3.72183 13.6412 3.67733L15.2483 2.07019C15.3387 1.9799 15.4613 1.92919 15.5891 1.92919C15.7168 1.92919 15.8394 1.9799 15.9298 2.07019M6.54406 15.2385C6.93989 15.8981 7.57011 16.3841 8.30873 16.5991C9.04735 16.8142 9.83993 16.7425 10.528 16.3985C11.2161 16.0545 11.7489 15.4634 12.0201 14.7435C12.2912 14.0235 12.2806 13.2278 11.9903 12.5153L14.4506 11.2855C14.7011 11.1603 14.9183 10.9773 15.0842 10.7516C15.2502 10.526 15.3601 10.2641 15.405 9.98762C15.4499 9.71114 15.4284 9.42794 15.3424 9.16137C15.2564 8.89481 15.1082 8.6525 14.9102 8.45441L9.54685 3.08976C9.34876 2.89172 9.10645 2.74359 8.83988 2.65756C8.57331 2.57154 8.29012 2.55009 8.01363 2.59497C7.73715 2.63986 7.47529 2.74981 7.24963 2.91575C7.02396 3.08169 6.84096 3.29887 6.7157 3.54941L2.11606 12.748C1.95025 13.0799 1.89306 13.4556 1.9526 13.8218C2.01213 14.188 2.18537 14.5262 2.44777 14.7885L3.21277 15.5535C3.47513 15.8158 3.81336 15.9889 4.17956 16.0483C4.54576 16.1077 4.92137 16.0504 5.2532 15.8845L6.54406 15.2385ZM7.41127 14.8052L11.1238 12.9486C11.2995 13.4305 11.2917 13.9602 11.1021 14.4368C10.9124 14.9134 10.554 15.3035 10.0952 15.5329C9.63643 15.7623 9.10929 15.8149 8.61422 15.6807C8.11915 15.5465 7.69139 15.2349 7.41127 14.8052ZM7.57649 3.98076C7.63342 3.86686 7.71661 3.76812 7.81919 3.69268C7.92177 3.61724 8.04082 3.56726 8.16651 3.54685C8.2922 3.52645 8.42094 3.5362 8.54212 3.57532C8.6633 3.61444 8.77345 3.68179 8.86349 3.77183L14.2275 9.13584C14.3175 9.22587 14.3849 9.33602 14.424 9.4572C14.4631 9.57838 14.4729 9.70712 14.4525 9.83282C14.4321 9.95851 14.3821 10.0776 14.3066 10.1801C14.2312 10.2827 14.1325 10.3659 14.0186 10.4228L4.82185 15.0225C4.671 15.0979 4.50023 15.124 4.33374 15.097C4.16725 15.07 4.01348 14.9913 3.8942 14.872L3.1292 14.107C3.00995 13.9878 2.93124 13.834 2.90425 13.6675C2.87725 13.501 2.90332 13.3303 2.97877 13.1794L7.57649 3.98076ZM14.4647 6.26933C14.4647 6.14146 14.5155 6.01883 14.6059 5.92841C14.6963 5.83799 14.819 5.78719 14.9468 5.78719H16.554C16.6819 5.78719 16.8045 5.83799 16.8949 5.92841C16.9853 6.01883 17.0361 6.14146 17.0361 6.26933C17.0361 6.39721 16.9853 6.51984 16.8949 6.61026C16.8045 6.70068 16.6819 6.75148 16.554 6.75148H14.9468C14.819 6.75148 14.6963 6.70068 14.6059 6.61026C14.5155 6.51984 14.4647 6.39721 14.4647 6.26933Z" fill="#454B27" fill-opacity="0.5"/>
</svg>
