<svg width="24" height="24" viewBox="0 0 24 24" fill="none" xmlns="http://www.w3.org/2000/svg">
<path d="M17.2639 2.17717C17.592 1.84924 18.0369 1.66504 18.5009 1.66504C18.9648 1.66504 19.4097 1.84924 19.7379 2.17717L22.3239 4.76317C22.6518 5.09132 22.836 5.53625 22.836 6.00017C22.836 6.46408 22.6518 6.90901 22.3239 7.23717L19.5309 10.0302L19.5189 10.0432L8.69086 20.3782C8.49305 20.5673 8.25364 20.7074 7.99186 20.7872L2.46886 22.4672C2.33899 22.5063 2.20093 22.5095 2.06938 22.4764C1.93784 22.4433 1.81773 22.3751 1.72186 22.2792C1.6259 22.1833 1.55774 22.0632 1.52463 21.9316C1.49153 21.8001 1.49472 21.662 1.53386 21.5322L3.20686 16.0322C3.2946 15.7443 3.45511 15.4839 3.67286 15.2762L14.4769 4.96317L17.2639 2.17717ZM4.70886 16.3612C4.67794 16.3911 4.65492 16.4282 4.64186 16.4692L3.37786 20.6232L7.55486 19.3522C7.59236 19.3406 7.62662 19.3204 7.65486 19.2932L17.9279 9.48717L14.9879 6.54817L4.70886 16.3612ZM19.0009 8.44017L21.2639 6.17817C21.2871 6.15494 21.3056 6.12736 21.3182 6.09698C21.3308 6.06661 21.3373 6.03405 21.3373 6.00117C21.3373 5.96828 21.3308 5.93572 21.3182 5.90535C21.3056 5.87498 21.2871 5.84739 21.2639 5.82417L18.6779 3.23817C18.6546 3.21488 18.6271 3.19641 18.5967 3.18381C18.5663 3.17121 18.5337 3.16472 18.5009 3.16472C18.468 3.16472 18.4354 3.17121 18.405 3.18381C18.3747 3.19641 18.3471 3.21488 18.3239 3.23817L16.0619 5.50017L19.0009 8.44017Z" fill="#FFF27B"/>
</svg>
