<svg width="17" height="17" viewBox="0 0 17 17" fill="none" xmlns="http://www.w3.org/2000/svg">
<path d="M8.25 9.625C15.125 9.625 16.5 13.75 16.5 15.125C16.5 16.5 15.125 16.5 15.125 16.5H1.375C1.375 16.5 0 16.5 0 15.125C6.35782e-07 13.75 1.375 9.625 8.25 9.625ZM8.25 11C5.10263 11 3.41505 11.9346 2.51855 12.8311C1.58664 13.763 1.3779 14.7805 1.375 15.1191H15.125C15.1235 14.7805 14.9134 13.763 13.9814 12.8311C13.0849 11.9346 11.3974 11 8.25 11ZM8.25 0C9.34402 0 10.3934 0.434421 11.167 1.20801C11.9406 1.9816 12.375 3.03098 12.375 4.125C12.375 5.21902 11.9406 6.2684 11.167 7.04199C10.3934 7.81558 9.34402 8.25 8.25 8.25C7.15598 8.25 6.1066 7.81558 5.33301 7.04199C4.55942 6.2684 4.125 5.21902 4.125 4.125C4.125 3.03098 4.55942 1.9816 5.33301 1.20801C6.1066 0.43442 7.15598 0 8.25 0ZM8.25 1.375C7.52065 1.375 6.82139 1.66494 6.30566 2.18066C5.78994 2.69639 5.5 3.39565 5.5 4.125C5.5 4.85435 5.78994 5.55361 6.30566 6.06934C6.82139 6.58506 7.52065 6.875 8.25 6.875C8.97935 6.875 9.67861 6.58506 10.1943 6.06934C10.7101 5.55361 11 4.85435 11 4.125C11 3.39565 10.7101 2.69639 10.1943 2.18066C9.67861 1.66494 8.97935 1.375 8.25 1.375Z" fill="#3A3A3A"/>
<path d="M8.25 9.625C15.125 9.625 16.5 13.75 16.5 15.125C16.5 16.5 15.125 16.5 15.125 16.5H1.375C1.375 16.5 0 16.5 0 15.125C6.35782e-07 13.75 1.375 9.625 8.25 9.625ZM8.25 11C5.10263 11 3.41505 11.9346 2.51855 12.8311C1.58664 13.763 1.3779 14.7805 1.375 15.1191H15.125C15.1235 14.7805 14.9134 13.763 13.9814 12.8311C13.0849 11.9346 11.3974 11 8.25 11ZM8.25 0C9.34402 0 10.3934 0.434421 11.167 1.20801C11.9406 1.9816 12.375 3.03098 12.375 4.125C12.375 5.21902 11.9406 6.2684 11.167 7.04199C10.3934 7.81558 9.34402 8.25 8.25 8.25C7.15598 8.25 6.1066 7.81558 5.33301 7.04199C4.55942 6.2684 4.125 5.21902 4.125 4.125C4.125 3.03098 4.55942 1.9816 5.33301 1.20801C6.1066 0.43442 7.15598 0 8.25 0ZM8.25 1.375C7.52065 1.375 6.82139 1.66494 6.30566 2.18066C5.78994 2.69639 5.5 3.39565 5.5 4.125C5.5 4.85435 5.78994 5.55361 6.30566 6.06934C6.82139 6.58506 7.52065 6.875 8.25 6.875C8.97935 6.875 9.67861 6.58506 10.1943 6.06934C10.7101 5.55361 11 4.85435 11 4.125C11 3.39565 10.7101 2.69639 10.1943 2.18066C9.67861 1.66494 8.97935 1.375 8.25 1.375Z" stroke="white"/>
</svg>
