<svg width="9" height="12" viewBox="0 0 9 12" fill="none" xmlns="http://www.w3.org/2000/svg">
<path d="M3.5575 10.4055C3.8605 10.6555 4.1765 10.884 4.5 11.107C4.8242 10.887 5.13866 10.6529 5.4425 10.4055C5.949 9.98961 6.42567 9.53867 6.869 9.056C7.891 7.9385 9 6.3185 9 4.5C9 3.90905 8.8836 3.32389 8.65746 2.77792C8.43131 2.23196 8.09984 1.73588 7.68198 1.31802C7.26412 0.900156 6.76804 0.568688 6.22208 0.342542C5.67611 0.116396 5.09095 0 4.5 0C3.90905 0 3.32389 0.116396 2.77792 0.342542C2.23196 0.568688 1.73588 0.900156 1.31802 1.31802C0.900156 1.73588 0.568688 2.23196 0.342542 2.77792C0.116396 3.32389 -8.80582e-09 3.90905 0 4.5C0 6.3185 1.109 7.938 2.131 9.056C2.57431 9.53884 3.05098 9.98945 3.5575 10.4055ZM4.5 6.125C4.06902 6.125 3.6557 5.95379 3.35095 5.64905C3.04621 5.3443 2.875 4.93098 2.875 4.5C2.875 4.06902 3.04621 3.6557 3.35095 3.35095C3.6557 3.0462 4.06902 2.875 4.5 2.875C4.93098 2.875 5.3443 3.0462 5.64905 3.35095C5.95379 3.6557 6.125 4.06902 6.125 4.5C6.125 4.93098 5.95379 5.3443 5.64905 5.64905C5.3443 5.95379 4.93098 6.125 4.5 6.125Z" fill="#778437"/>
</svg>
