<svg viewBox="0 0 22 22" fill="none" xmlns="http://www.w3.org/2000/svg">
<g transform="translate(1.8 2.5)"><path d="M16.4844 0.050293C16.9568 0.050293 17.3543 0.20925 17.6729 0.527832C17.9915 0.846441 18.1501 1.24382 18.1494 1.71631V12.4849C18.1494 12.9573 17.9908 13.3547 17.6729 13.6733C17.3549 13.992 16.9575 14.1506 16.4844 14.1499H3.19727L1.50781 15.8394C1.376 15.9712 1.2316 16.0551 1.07422 16.0864C0.916726 16.1177 0.750045 16.0952 0.577148 16.0239C0.404533 15.9526 0.2719 15.851 0.182617 15.7173C0.0932609 15.5833 0.0498047 15.4207 0.0498047 15.2329V1.71631C0.0498047 1.24321 0.208728 0.845778 0.527344 0.527832C0.845922 0.209942 1.24341 0.0509776 1.71582 0.050293H16.4844ZM1.71484 1.1499C1.57716 1.1499 1.44827 1.20718 1.32715 1.32764C1.20614 1.44802 1.14882 1.57709 1.14941 1.71533V14.6245L2.71387 13.0649L2.72852 13.0503H16.4844C16.6221 13.0503 16.751 12.993 16.8721 12.8726C16.9931 12.7522 17.0504 12.6231 17.0498 12.4849V1.71533C17.0498 1.57765 16.9925 1.44876 16.8721 1.32764C16.7517 1.20663 16.6226 1.1493 16.4844 1.1499H1.71484ZM9.09961 3.73389C9.19634 3.73389 9.28173 3.75646 9.35352 3.80322C9.40739 3.83832 9.4514 3.88593 9.48633 3.94482L9.51855 4.00732L10.2656 5.76025L12.1729 5.93311C12.2713 5.94209 12.3567 5.97104 12.4248 6.02295C12.4931 6.07502 12.541 6.14808 12.5703 6.23779C12.5996 6.32749 12.603 6.41464 12.5781 6.49756C12.5594 6.55964 12.525 6.61729 12.4775 6.67041L12.4248 6.72314L10.9775 7.96533L11.4141 9.82373L11.415 9.82471C11.4349 9.92117 11.4304 10.0118 11.3994 10.0933C11.3684 10.1746 11.3119 10.2437 11.2334 10.3013C11.1548 10.3583 11.0724 10.3917 10.9883 10.396C10.9251 10.3991 10.8631 10.3856 10.8027 10.3579L10.7432 10.3257L9.09961 9.32568L7.45703 10.3257C7.37737 10.3757 7.2944 10.4003 7.20996 10.396C7.12577 10.3917 7.04405 10.3586 6.96582 10.3013C6.88721 10.2436 6.8306 10.174 6.7998 10.0923C6.76909 10.0107 6.76594 9.92038 6.78613 9.82373V9.82275L7.2207 7.96533L5.77441 6.72314C5.69886 6.65618 5.64603 6.58042 5.62109 6.49756C5.5962 6.41457 5.59933 6.3275 5.62891 6.23779C5.65855 6.14813 5.70716 6.07499 5.77539 6.02295C5.84338 5.97118 5.9283 5.94209 6.02637 5.93311L7.93262 5.75928L8.68066 4.00732L8.71289 3.94482C8.74782 3.88593 8.79183 3.83832 8.8457 3.80322C8.91749 3.75646 9.00288 3.73389 9.09961 3.73389Z" fill="#FFF27B" stroke="#FFF27B" stroke-width="0.1"/></g>
</svg>
