<svg width="24" height="24" viewBox="0 0 24 24" fill="none" xmlns="http://www.w3.org/2000/svg">
<rect width="24" height="24" rx="12" fill="#FFF27B"/>
<path fill-rule="evenodd" clip-rule="evenodd" d="M11.448 7C10.7387 7.00006 10.0396 7.16975 9.40922 7.49492C8.7788 7.82009 8.23528 8.2913 7.82401 8.86925C7.41274 9.44719 7.14564 10.1151 7.045 10.8173C6.94436 11.5194 7.0131 12.2355 7.24548 12.9057C7.47785 13.5759 7.86714 14.1808 8.38084 14.6699C8.89455 15.1591 9.51779 15.5183 10.1986 15.7176C10.8793 15.9169 11.5979 15.9505 12.2943 15.8156C12.9907 15.6808 13.6447 15.3813 14.2018 14.9422L16.1131 16.8535C16.2118 16.9488 16.344 17.0016 16.4812 17.0004C16.6184 16.9992 16.7497 16.9441 16.8467 16.8471C16.9437 16.7501 16.9988 16.6188 17 16.4816C17.0012 16.3444 16.9484 16.2122 16.8531 16.1135L14.9418 14.2022C15.4589 13.5463 15.7809 12.758 15.8708 11.9276C15.9608 11.0973 15.8152 10.2583 15.4507 9.50685C15.0861 8.75537 14.5174 8.12171 13.8095 7.67837C13.1016 7.23504 12.2833 6.99994 11.448 7ZM8.0463 11.4484C8.0463 10.5462 8.4047 9.68097 9.04264 9.04302C9.68059 8.40508 10.5458 8.04668 11.448 8.04668C12.3502 8.04668 13.2155 8.40508 13.8534 9.04302C14.4913 9.68097 14.8497 10.5462 14.8497 11.4484C14.8497 12.3506 14.4913 13.2158 13.8534 13.8538C13.2155 14.4917 12.3502 14.8501 11.448 14.8501C10.5458 14.8501 9.68059 14.4917 9.04264 13.8538C8.4047 13.2158 8.0463 12.3506 8.0463 11.4484Z" fill="#778437"/>
</svg>
