<svg width="21" height="21" viewBox="0 0 21 21" fill="none" xmlns="http://www.w3.org/2000/svg">
<path fill-rule="evenodd" clip-rule="evenodd" d="M11.9442 0.090294C13.1532 -0.207623 14.4618 0.234669 15.1277 1.37271C15.2987 1.66513 15.4862 2.00613 15.6846 2.39846C14.2922 2.30634 12.2265 2.21925 9.39583 2.21925C7.799 2.21925 6.446 2.24675 5.31942 2.288C7.43783 1.40342 9.74279 0.632044 11.9442 0.090294ZM3.00529 20.135C4.36975 20.2295 6.46479 20.3234 9.39583 20.3234C12.3269 20.3234 14.4219 20.2295 15.7864 20.135C17.2888 20.031 18.474 18.8898 18.5973 17.375C18.6212 17.0856 18.6441 16.7631 18.6661 16.4074C18.2403 16.4198 17.749 16.4276 17.1875 16.4276C16.4202 16.4276 15.7832 16.4129 15.2671 16.3923C13.5992 16.3254 12.2526 15.048 12.1765 13.3366C12.1582 12.9181 12.1458 12.4227 12.1458 11.8443C12.1458 11.2658 12.1582 10.7704 12.1765 10.3519C12.2526 8.6405 13.5992 7.36359 15.2671 7.29621C15.9069 7.27167 16.5472 7.25991 17.1875 7.26092C17.749 7.26092 18.2403 7.26871 18.6661 7.28109C18.6441 6.92511 18.6212 6.60275 18.5973 6.314C18.474 4.79875 17.2888 3.6575 15.7864 3.55346C14.4219 3.45904 12.3269 3.36509 9.39583 3.36509C6.46479 3.36509 4.36975 3.45904 3.00529 3.55346C1.50287 3.6575 0.317625 4.79875 0.194333 6.31354C0.0944167 7.54096 0 9.35779 0 11.8443C0 14.3307 0.0944167 16.148 0.194333 17.375C0.317625 18.8898 1.50287 20.031 3.00529 20.135ZM13.5502 13.2756C13.5937 14.2519 14.3463 14.9793 15.3221 15.0182C15.8194 15.0384 16.4377 15.0526 17.1875 15.0526C17.9373 15.0526 18.5556 15.0384 19.0529 15.0182C20.0292 14.9793 20.7813 14.2519 20.8248 13.2756C20.8422 12.8783 20.8542 12.403 20.8542 11.8443C20.8542 11.2855 20.8422 10.8103 20.8248 10.4129C20.7813 9.43663 20.0287 8.70925 19.0529 8.67029C18.4314 8.64643 17.8095 8.63497 17.1875 8.63592C16.4377 8.63592 15.8194 8.65013 15.3221 8.67029C14.3458 8.70925 13.5937 9.43663 13.5502 10.4129C13.5327 10.8103 13.5208 11.2851 13.5208 11.8443C13.5208 12.4034 13.5327 12.8783 13.5502 13.2756ZM16.7292 10.6984C16.9115 10.6984 17.0864 10.7709 17.2153 10.8998C17.3442 11.0287 17.4167 11.2036 17.4167 11.3859V12.3026C17.4167 12.4849 17.3442 12.6598 17.2153 12.7887C17.0864 12.9177 16.9115 12.9901 16.7292 12.9901C16.5468 12.9901 16.372 12.9177 16.243 12.7887C16.1141 12.6598 16.0417 12.4849 16.0417 12.3026V11.3859C16.0417 11.2036 16.1141 11.0287 16.243 10.8998C16.372 10.7709 16.5468 10.6984 16.7292 10.6984Z" fill="#FFF27B"/>
</svg>
